<svg xmlns="http://www.w3.org/2000/svg" viewBox="0 0 800 1000" width="800" height="1000" role="img" aria-hidden="true">
  <defs>
    <linearGradient id="bgg72508" x1="0" y1="0" x2="0.35" y2="1">
      <stop offset="0" stop-color="#fbf4f2"/>
      <stop offset="1" stop-color="#f2e2dc"/>
    </linearGradient>
    <radialGradient id="glowg72508" cx="0.5" cy="0.38" r="0.62">
      <stop offset="0" stop-color="#ffffff" stop-opacity="0.55"/>
      <stop offset="1" stop-color="#ffffff" stop-opacity="0"/>
    </radialGradient>
  </defs>
  <rect width="800" height="1000" fill="url(#bgg72508)"/>
  <rect width="800" height="1000" fill="url(#glowg72508)"/>
  <path d="M 382.01 1020 Q 237.08 752.37 168.87 484.74" fill="none" stroke="#6f7d5c" stroke-width="8.8" stroke-linecap="round" opacity="0.55"/><path d="M 382.01 1020 Q 282.23 717.09 235.28 414.17" fill="none" stroke="#6f7d5c" stroke-width="8.8" stroke-linecap="round" opacity="0.55"/><path d="M 382.01 1020 Q 278.36 717.16 229.58 414.32" fill="none" stroke="#6f7d5c" stroke-width="8.8" stroke-linecap="round" opacity="0.55"/><path d="M 382.01 1020 Q 382.01 821.42 382.01 622.85" fill="none" stroke="#6f7d5c" stroke-width="8.8" stroke-linecap="round" opacity="0.55"/><path d="M 382.01 1020 Q 451.59 721.71 484.33 423.43" fill="none" stroke="#6f7d5c" stroke-width="8.8" stroke-linecap="round" opacity="0.55"/><path d="M 382.01 1020 Q 556.14 801.45 638.09 582.9" fill="none" stroke="#6f7d5c" stroke-width="8.8" stroke-linecap="round" opacity="0.55"/><path d="M 382.01 1020 Q 526.44 722.24 594.4 424.48" fill="none" stroke="#6f7d5c" stroke-width="8.8" stroke-linecap="round" opacity="0.55"/><ellipse cx="296.12" cy="570.56" rx="39.58" ry="108.33" fill="#8b9878" opacity="0.73" transform="rotate(-76.57 296.12 674.73)"/><ellipse cx="554.15" cy="644.68" rx="55.48" ry="151.83" fill="#8b9878" opacity="0.7" transform="rotate(4.39 554.15 790.67)"/><ellipse cx="170.11" cy="435.9" rx="47.44" ry="129.84" fill="#8b9878" opacity="0.85" transform="rotate(-26.41 170.11 560.74)"/><ellipse cx="143" cy="468.9" rx="50.13" ry="137.2" fill="#a7b394" opacity="0.79" transform="rotate(-8.84 143 600.82)"/><ellipse cx="433.42" cy="425.43" rx="52.58" ry="143.91" fill="#8b9878" opacity="0.81" transform="rotate(-26.96 433.42 563.81)"/><ellipse cx="264.78" cy="700.6" rx="42.47" ry="116.23" fill="#8b9878" opacity="0.83" transform="rotate(-93.75 264.78 812.36)"/><ellipse cx="301.31" cy="686.51" rx="37.42" ry="102.41" fill="#6f7d5c" opacity="0.65" transform="rotate(-62.5 301.31 784.98)"/><ellipse cx="298.17" cy="701.16" rx="31.87" ry="87.23" fill="#8b9878" opacity="0.83" transform="rotate(-31.25 298.17 785.04)"/><ellipse cx="382.01" cy="769.91" rx="36.49" ry="99.87" fill="#6f7d5c" opacity="0.83" transform="rotate(0 382.01 865.93)"/><ellipse cx="438.29" cy="691.95" rx="36.71" ry="100.48" fill="#8b9878" opacity="0.74" transform="rotate(31.25 438.29 788.57)"/><ellipse cx="522.85" cy="745.93" rx="39.71" ry="108.69" fill="#a7b394" opacity="0.69" transform="rotate(62.5 522.85 850.43)"/><ellipse cx="498.83" cy="701.61" rx="33.2" ry="90.86" fill="#8b9878" opacity="0.75" transform="rotate(93.75 498.83 788.98)"/><ellipse cx="235.28" cy="365.03" rx="37.35" ry="60.94" fill="#eecdc3" opacity="0.86" transform="rotate(439.01 235.28 414.17)"/><ellipse cx="235.28" cy="365.03" rx="37.35" ry="60.94" fill="#eecdc3" opacity="0.91" transform="rotate(490.16 235.28 414.17)"/><ellipse cx="235.28" cy="365.03" rx="37.35" ry="60.94" fill="#eecdc3" opacity="0.85" transform="rotate(541.25 235.28 414.17)"/><ellipse cx="235.28" cy="365.03" rx="37.35" ry="60.94" fill="#eecdc3" opacity="0.88" transform="rotate(587.47 235.28 414.17)"/><ellipse cx="235.28" cy="365.03" rx="37.35" ry="60.94" fill="#eecdc3" opacity="0.97" transform="rotate(641.01 235.28 414.17)"/><ellipse cx="235.28" cy="365.03" rx="37.35" ry="60.94" fill="#eecdc3" opacity="0.84" transform="rotate(691.32 235.28 414.17)"/><ellipse cx="235.28" cy="365.03" rx="37.35" ry="60.94" fill="#eecdc3" opacity="0.86" transform="rotate(745.85 235.28 414.17)"/><ellipse cx="235.28" cy="381.41" rx="24.9" ry="40.63" fill="#dfb1a4" opacity="0.97" transform="rotate(407.33 235.28 414.17)"/><ellipse cx="235.28" cy="381.41" rx="24.9" ry="40.63" fill="#dfb1a4" opacity="0.88" transform="rotate(459.45 235.28 414.17)"/><ellipse cx="235.28" cy="381.41" rx="24.9" ry="40.63" fill="#dfb1a4" opacity="0.91" transform="rotate(510.21 235.28 414.17)"/><ellipse cx="235.28" cy="381.41" rx="24.9" ry="40.63" fill="#dfb1a4" opacity="0.87" transform="rotate(562.44 235.28 414.17)"/><ellipse cx="235.28" cy="381.41" rx="24.9" ry="40.63" fill="#dfb1a4" opacity="0.83" transform="rotate(617.53 235.28 414.17)"/><ellipse cx="235.28" cy="381.41" rx="24.9" ry="40.63" fill="#dfb1a4" opacity="0.91" transform="rotate(667.24 235.28 414.17)"/><ellipse cx="235.28" cy="381.41" rx="24.9" ry="40.63" fill="#dfb1a4" opacity="0.93" transform="rotate(721.61 235.28 414.17)"/><ellipse cx="235.28" cy="397.79" rx="12.45" ry="20.31" fill="#cd9f92" opacity="0.84" transform="rotate(388.34 235.28 414.17)"/><ellipse cx="235.28" cy="397.79" rx="12.45" ry="20.31" fill="#cd9f92" opacity="0.83" transform="rotate(439.5 235.28 414.17)"/><ellipse cx="235.28" cy="397.79" rx="12.45" ry="20.31" fill="#cd9f92" opacity="0.88" transform="rotate(490.81 235.28 414.17)"/><ellipse cx="235.28" cy="397.79" rx="12.45" ry="20.31" fill="#cd9f92" opacity="0.85" transform="rotate(541.2 235.28 414.17)"/><ellipse cx="235.28" cy="397.79" rx="12.45" ry="20.31" fill="#cd9f92" opacity="0.98" transform="rotate(590.98 235.28 414.17)"/><ellipse cx="235.28" cy="397.79" rx="12.45" ry="20.31" fill="#cd9f92" opacity="0.93" transform="rotate(645.41 235.28 414.17)"/><ellipse cx="235.28" cy="397.79" rx="12.45" ry="20.31" fill="#cd9f92" opacity="0.93" transform="rotate(694.4 235.28 414.17)"/><circle cx="235.28" cy="414.17" r="16.71" fill="#f7e3dd"/><circle cx="235.28" cy="414.17" r="9.83" fill="#b49157" opacity="0.75"/><ellipse cx="229.58" cy="341.74" rx="55.16" ry="90" fill="#eecdc3" opacity="0.9" transform="rotate(215.21 229.58 414.32)"/><ellipse cx="229.58" cy="341.74" rx="55.16" ry="90" fill="#eecdc3" opacity="0.88" transform="rotate(269.1 229.58 414.32)"/><ellipse cx="229.58" cy="341.74" rx="55.16" ry="90" fill="#eecdc3" opacity="0.95" transform="rotate(317.72 229.58 414.32)"/><ellipse cx="229.58" cy="341.74" rx="55.16" ry="90" fill="#eecdc3" opacity="0.83" transform="rotate(366.79 229.58 414.32)"/><ellipse cx="229.58" cy="341.74" rx="55.16" ry="90" fill="#eecdc3" opacity="0.84" transform="rotate(417.54 229.58 414.32)"/><ellipse cx="229.58" cy="341.74" rx="55.16" ry="90" fill="#eecdc3" opacity="0.89" transform="rotate(474.25 229.58 414.32)"/><ellipse cx="229.58" cy="341.74" rx="55.16" ry="90" fill="#eecdc3" opacity="0.96" transform="rotate(526.33 229.58 414.32)"/><ellipse cx="229.58" cy="365.94" rx="36.77" ry="60" fill="#dfb1a4" opacity="0.98" transform="rotate(186.77 229.58 414.32)"/><ellipse cx="229.58" cy="365.94" rx="36.77" ry="60" fill="#dfb1a4" opacity="0.83" transform="rotate(242.48 229.58 414.32)"/><ellipse cx="229.58" cy="365.94" rx="36.77" ry="60" fill="#dfb1a4" opacity="0.85" transform="rotate(294.73 229.58 414.32)"/><ellipse cx="229.58" cy="365.94" rx="36.77" ry="60" fill="#dfb1a4" opacity="0.93" transform="rotate(341.95 229.58 414.32)"/><ellipse cx="229.58" cy="365.94" rx="36.77" ry="60" fill="#dfb1a4" opacity="0.89" transform="rotate(391.44 229.58 414.32)"/><ellipse cx="229.58" cy="365.94" rx="36.77" ry="60" fill="#dfb1a4" opacity="0.84" transform="rotate(442.74 229.58 414.32)"/><ellipse cx="229.58" cy="365.94" rx="36.77" ry="60" fill="#dfb1a4" opacity="0.9" transform="rotate(493.68 229.58 414.32)"/><ellipse cx="229.58" cy="390.13" rx="18.39" ry="30" fill="#cd9f92" opacity="0.95" transform="rotate(164.8 229.58 414.32)"/><ellipse cx="229.58" cy="390.13" rx="18.39" ry="30" fill="#cd9f92" opacity="0.96" transform="rotate(218.03 229.58 414.32)"/><ellipse cx="229.58" cy="390.13" rx="18.39" ry="30" fill="#cd9f92" opacity="0.82" transform="rotate(267.69 229.58 414.32)"/><ellipse cx="229.58" cy="390.13" rx="18.39" ry="30" fill="#cd9f92" opacity="0.84" transform="rotate(316.69 229.58 414.32)"/><ellipse cx="229.58" cy="390.13" rx="18.39" ry="30" fill="#cd9f92" opacity="0.92" transform="rotate(370.86 229.58 414.32)"/><ellipse cx="229.58" cy="390.13" rx="18.39" ry="30" fill="#cd9f92" opacity="0.96" transform="rotate(418.87 229.58 414.32)"/><ellipse cx="229.58" cy="390.13" rx="18.39" ry="30" fill="#cd9f92" opacity="0.86" transform="rotate(470.83 229.58 414.32)"/><circle cx="229.58" cy="414.32" r="24.68" fill="#f7e3dd"/><circle cx="229.58" cy="414.32" r="14.52" fill="#b49157" opacity="0.75"/><ellipse cx="484.33" cy="376.94" rx="35.33" ry="57.64" fill="#eecdc3" opacity="0.87" transform="rotate(169.57 484.33 423.43)"/><ellipse cx="484.33" cy="376.94" rx="35.33" ry="57.64" fill="#eecdc3" opacity="0.89" transform="rotate(233.79 484.33 423.43)"/><ellipse cx="484.33" cy="376.94" rx="35.33" ry="57.64" fill="#eecdc3" opacity="0.94" transform="rotate(292.47 484.33 423.43)"/><ellipse cx="484.33" cy="376.94" rx="35.33" ry="57.64" fill="#eecdc3" opacity="0.84" transform="rotate(354.93 484.33 423.43)"/><ellipse cx="484.33" cy="376.94" rx="35.33" ry="57.64" fill="#eecdc3" opacity="0.94" transform="rotate(413.19 484.33 423.43)"/><ellipse cx="484.33" cy="376.94" rx="35.33" ry="57.64" fill="#eecdc3" opacity="0.93" transform="rotate(475.29 484.33 423.43)"/><ellipse cx="484.33" cy="392.44" rx="23.55" ry="38.43" fill="#dfb1a4" opacity="0.84" transform="rotate(138.34 484.33 423.43)"/><ellipse cx="484.33" cy="392.44" rx="23.55" ry="38.43" fill="#dfb1a4" opacity="0.92" transform="rotate(203.96 484.33 423.43)"/><ellipse cx="484.33" cy="392.44" rx="23.55" ry="38.43" fill="#dfb1a4" opacity="0.88" transform="rotate(262.59 484.33 423.43)"/><ellipse cx="484.33" cy="392.44" rx="23.55" ry="38.43" fill="#dfb1a4" opacity="0.93" transform="rotate(320.67 484.33 423.43)"/><ellipse cx="484.33" cy="392.44" rx="23.55" ry="38.43" fill="#dfb1a4" opacity="0.94" transform="rotate(381.94 484.33 423.43)"/><ellipse cx="484.33" cy="392.44" rx="23.55" ry="38.43" fill="#dfb1a4" opacity="0.9" transform="rotate(438.39 484.33 423.43)"/><ellipse cx="484.33" cy="407.93" rx="11.78" ry="19.21" fill="#cd9f92" opacity="0.95" transform="rotate(110.29 484.33 423.43)"/><ellipse cx="484.33" cy="407.93" rx="11.78" ry="19.21" fill="#cd9f92" opacity="0.98" transform="rotate(173.81 484.33 423.43)"/><ellipse cx="484.33" cy="407.93" rx="11.78" ry="19.21" fill="#cd9f92" opacity="0.9" transform="rotate(230.93 484.33 423.43)"/><ellipse cx="484.33" cy="407.93" rx="11.78" ry="19.21" fill="#cd9f92" opacity="0.83" transform="rotate(294.63 484.33 423.43)"/><ellipse cx="484.33" cy="407.93" rx="11.78" ry="19.21" fill="#cd9f92" opacity="0.89" transform="rotate(353.54 484.33 423.43)"/><ellipse cx="484.33" cy="407.93" rx="11.78" ry="19.21" fill="#cd9f92" opacity="0.86" transform="rotate(410.41 484.33 423.43)"/><circle cx="484.33" cy="423.43" r="15.81" fill="#f7e3dd"/><circle cx="484.33" cy="423.43" r="9.3" fill="#b49157" opacity="0.75"/><ellipse cx="594.4" cy="366.22" rx="44.27" ry="72.23" fill="#eecdc3" opacity="0.83" transform="rotate(223.29 594.4 424.48)"/><ellipse cx="594.4" cy="366.22" rx="44.27" ry="72.23" fill="#eecdc3" opacity="0.85" transform="rotate(270.98 594.4 424.48)"/><ellipse cx="594.4" cy="366.22" rx="44.27" ry="72.23" fill="#eecdc3" opacity="0.91" transform="rotate(316.22 594.4 424.48)"/><ellipse cx="594.4" cy="366.22" rx="44.27" ry="72.23" fill="#eecdc3" opacity="0.87" transform="rotate(356.65 594.4 424.48)"/><ellipse cx="594.4" cy="366.22" rx="44.27" ry="72.23" fill="#eecdc3" opacity="0.94" transform="rotate(403.76 594.4 424.48)"/><ellipse cx="594.4" cy="366.22" rx="44.27" ry="72.23" fill="#eecdc3" opacity="0.98" transform="rotate(445.61 594.4 424.48)"/><ellipse cx="594.4" cy="366.22" rx="44.27" ry="72.23" fill="#eecdc3" opacity="0.95" transform="rotate(494.97 594.4 424.48)"/><ellipse cx="594.4" cy="366.22" rx="44.27" ry="72.23" fill="#eecdc3" opacity="0.96" transform="rotate(540.94 594.4 424.48)"/><ellipse cx="594.4" cy="385.64" rx="29.51" ry="48.15" fill="#dfb1a4" opacity="0.83" transform="rotate(201.07 594.4 424.48)"/><ellipse cx="594.4" cy="385.64" rx="29.51" ry="48.15" fill="#dfb1a4" opacity="0.87" transform="rotate(243.76 594.4 424.48)"/><ellipse cx="594.4" cy="385.64" rx="29.51" ry="48.15" fill="#dfb1a4" opacity="0.95" transform="rotate(290.04 594.4 424.48)"/><ellipse cx="594.4" cy="385.64" rx="29.51" ry="48.15" fill="#dfb1a4" opacity="0.91" transform="rotate(332.8 594.4 424.48)"/><ellipse cx="594.4" cy="385.64" rx="29.51" ry="48.15" fill="#dfb1a4" opacity="0.93" transform="rotate(381.29 594.4 424.48)"/><ellipse cx="594.4" cy="385.64" rx="29.51" ry="48.15" fill="#dfb1a4" opacity="0.9" transform="rotate(428.58 594.4 424.48)"/><ellipse cx="594.4" cy="385.64" rx="29.51" ry="48.15" fill="#dfb1a4" opacity="0.96" transform="rotate(472.66 594.4 424.48)"/><ellipse cx="594.4" cy="385.64" rx="29.51" ry="48.15" fill="#dfb1a4" opacity="0.88" transform="rotate(512.06 594.4 424.48)"/><ellipse cx="594.4" cy="405.06" rx="14.76" ry="24.08" fill="#cd9f92" opacity="0.84" transform="rotate(180.72 594.4 424.48)"/><ellipse cx="594.4" cy="405.06" rx="14.76" ry="24.08" fill="#cd9f92" opacity="0.92" transform="rotate(224.65 594.4 424.48)"/><ellipse cx="594.4" cy="405.06" rx="14.76" ry="24.08" fill="#cd9f92" opacity="0.82" transform="rotate(269.06 594.4 424.48)"/><ellipse cx="594.4" cy="405.06" rx="14.76" ry="24.08" fill="#cd9f92" opacity="0.86" transform="rotate(309.58 594.4 424.48)"/><ellipse cx="594.4" cy="405.06" rx="14.76" ry="24.08" fill="#cd9f92" opacity="0.95" transform="rotate(358.64 594.4 424.48)"/><ellipse cx="594.4" cy="405.06" rx="14.76" ry="24.08" fill="#cd9f92" opacity="0.84" transform="rotate(403.23 594.4 424.48)"/><ellipse cx="594.4" cy="405.06" rx="14.76" ry="24.08" fill="#cd9f92" opacity="0.95" transform="rotate(448.61 594.4 424.48)"/><ellipse cx="594.4" cy="405.06" rx="14.76" ry="24.08" fill="#cd9f92" opacity="0.82" transform="rotate(491.76 594.4 424.48)"/><circle cx="594.4" cy="424.48" r="19.81" fill="#f7e3dd"/><circle cx="594.4" cy="424.48" r="11.65" fill="#b49157" opacity="0.75"/><ellipse cx="168.87" cy="424.78" rx="45.57" ry="74.35" fill="#eecdc3" opacity="0.95" transform="rotate(138.72 168.87 484.74)"/><ellipse cx="168.87" cy="424.78" rx="45.57" ry="74.35" fill="#eecdc3" opacity="0.83" transform="rotate(195.21 168.87 484.74)"/><ellipse cx="168.87" cy="424.78" rx="45.57" ry="74.35" fill="#eecdc3" opacity="0.86" transform="rotate(251.8 168.87 484.74)"/><ellipse cx="168.87" cy="424.78" rx="45.57" ry="74.35" fill="#eecdc3" opacity="0.85" transform="rotate(317.85 168.87 484.74)"/><ellipse cx="168.87" cy="424.78" rx="45.57" ry="74.35" fill="#eecdc3" opacity="0.83" transform="rotate(375.22 168.87 484.74)"/><ellipse cx="168.87" cy="424.78" rx="45.57" ry="74.35" fill="#eecdc3" opacity="0.93" transform="rotate(434.83 168.87 484.74)"/><ellipse cx="168.87" cy="444.77" rx="30.38" ry="49.57" fill="#dfb1a4" opacity="0.84" transform="rotate(106.05 168.87 484.74)"/><ellipse cx="168.87" cy="444.77" rx="30.38" ry="49.57" fill="#dfb1a4" opacity="0.87" transform="rotate(166.67 168.87 484.74)"/><ellipse cx="168.87" cy="444.77" rx="30.38" ry="49.57" fill="#dfb1a4" opacity="0.82" transform="rotate(222.26 168.87 484.74)"/><ellipse cx="168.87" cy="444.77" rx="30.38" ry="49.57" fill="#dfb1a4" opacity="0.85" transform="rotate(289.08 168.87 484.74)"/><ellipse cx="168.87" cy="444.77" rx="30.38" ry="49.57" fill="#dfb1a4" opacity="0.97" transform="rotate(342.39 168.87 484.74)"/><ellipse cx="168.87" cy="444.77" rx="30.38" ry="49.57" fill="#dfb1a4" opacity="0.83" transform="rotate(408.79 168.87 484.74)"/><ellipse cx="168.87" cy="464.76" rx="15.19" ry="24.78" fill="#cd9f92" opacity="0.95" transform="rotate(78.64 168.87 484.74)"/><ellipse cx="168.87" cy="464.76" rx="15.19" ry="24.78" fill="#cd9f92" opacity="0.85" transform="rotate(132.09 168.87 484.74)"/><ellipse cx="168.87" cy="464.76" rx="15.19" ry="24.78" fill="#cd9f92" opacity="0.96" transform="rotate(193.86 168.87 484.74)"/><ellipse cx="168.87" cy="464.76" rx="15.19" ry="24.78" fill="#cd9f92" opacity="0.9" transform="rotate(251.56 168.87 484.74)"/><ellipse cx="168.87" cy="464.76" rx="15.19" ry="24.78" fill="#cd9f92" opacity="0.91" transform="rotate(316.16 168.87 484.74)"/><ellipse cx="168.87" cy="464.76" rx="15.19" ry="24.78" fill="#cd9f92" opacity="0.87" transform="rotate(374.4 168.87 484.74)"/><circle cx="168.87" cy="484.74" r="20.39" fill="#f7e3dd"/><circle cx="168.87" cy="484.74" r="11.99" fill="#b49157" opacity="0.75"/><ellipse cx="638.09" cy="534.36" rx="36.89" ry="60.19" fill="#eecdc3" opacity="0.89" transform="rotate(336.87 638.09 582.9)"/><ellipse cx="638.09" cy="534.36" rx="36.89" ry="60.19" fill="#eecdc3" opacity="0.9" transform="rotate(382.31 638.09 582.9)"/><ellipse cx="638.09" cy="534.36" rx="36.89" ry="60.19" fill="#eecdc3" opacity="0.93" transform="rotate(430.4 638.09 582.9)"/><ellipse cx="638.09" cy="534.36" rx="36.89" ry="60.19" fill="#eecdc3" opacity="0.87" transform="rotate(478.53 638.09 582.9)"/><ellipse cx="638.09" cy="534.36" rx="36.89" ry="60.19" fill="#eecdc3" opacity="0.98" transform="rotate(522.85 638.09 582.9)"/><ellipse cx="638.09" cy="534.36" rx="36.89" ry="60.19" fill="#eecdc3" opacity="0.93" transform="rotate(568.03 638.09 582.9)"/><ellipse cx="638.09" cy="534.36" rx="36.89" ry="60.19" fill="#eecdc3" opacity="0.85" transform="rotate(611.19 638.09 582.9)"/><ellipse cx="638.09" cy="534.36" rx="36.89" ry="60.19" fill="#eecdc3" opacity="0.85" transform="rotate(655.72 638.09 582.9)"/><ellipse cx="638.09" cy="550.54" rx="24.59" ry="40.13" fill="#dfb1a4" opacity="0.94" transform="rotate(316.8 638.09 582.9)"/><ellipse cx="638.09" cy="550.54" rx="24.59" ry="40.13" fill="#dfb1a4" opacity="0.85" transform="rotate(364.29 638.09 582.9)"/><ellipse cx="638.09" cy="550.54" rx="24.59" ry="40.13" fill="#dfb1a4" opacity="0.91" transform="rotate(411.02 638.09 582.9)"/><ellipse cx="638.09" cy="550.54" rx="24.59" ry="40.13" fill="#dfb1a4" opacity="0.85" transform="rotate(449.77 638.09 582.9)"/><ellipse cx="638.09" cy="550.54" rx="24.59" ry="40.13" fill="#dfb1a4" opacity="0.85" transform="rotate(498.99 638.09 582.9)"/><ellipse cx="638.09" cy="550.54" rx="24.59" ry="40.13" fill="#dfb1a4" opacity="0.98" transform="rotate(541.16 638.09 582.9)"/><ellipse cx="638.09" cy="550.54" rx="24.59" ry="40.13" fill="#dfb1a4" opacity="0.88" transform="rotate(585.42 638.09 582.9)"/><ellipse cx="638.09" cy="550.54" rx="24.59" ry="40.13" fill="#dfb1a4" opacity="0.85" transform="rotate(631.15 638.09 582.9)"/><ellipse cx="638.09" cy="566.72" rx="12.3" ry="20.06" fill="#cd9f92" opacity="0.93" transform="rotate(293.55 638.09 582.9)"/><ellipse cx="638.09" cy="566.72" rx="12.3" ry="20.06" fill="#cd9f92" opacity="0.93" transform="rotate(336.86 638.09 582.9)"/><ellipse cx="638.09" cy="566.72" rx="12.3" ry="20.06" fill="#cd9f92" opacity="0.96" transform="rotate(383.46 638.09 582.9)"/><ellipse cx="638.09" cy="566.72" rx="12.3" ry="20.06" fill="#cd9f92" opacity="0.92" transform="rotate(426.12 638.09 582.9)"/><ellipse cx="638.09" cy="566.72" rx="12.3" ry="20.06" fill="#cd9f92" opacity="0.86" transform="rotate(476.81 638.09 582.9)"/><ellipse cx="638.09" cy="566.72" rx="12.3" ry="20.06" fill="#cd9f92" opacity="0.84" transform="rotate(516.31 638.09 582.9)"/><ellipse cx="638.09" cy="566.72" rx="12.3" ry="20.06" fill="#cd9f92" opacity="0.83" transform="rotate(566.2 638.09 582.9)"/><ellipse cx="638.09" cy="566.72" rx="12.3" ry="20.06" fill="#cd9f92" opacity="0.93" transform="rotate(612.04 638.09 582.9)"/><circle cx="638.09" cy="582.9" r="16.5" fill="#f7e3dd"/><circle cx="638.09" cy="582.9" r="9.71" fill="#b49157" opacity="0.75"/><ellipse cx="382.01" cy="556.72" rx="50.26" ry="82" fill="#eecdc3" opacity="0.85" transform="rotate(224.59 382.01 622.85)"/><ellipse cx="382.01" cy="556.72" rx="50.26" ry="82" fill="#eecdc3" opacity="0.84" transform="rotate(278.3 382.01 622.85)"/><ellipse cx="382.01" cy="556.72" rx="50.26" ry="82" fill="#eecdc3" opacity="0.93" transform="rotate(325.88 382.01 622.85)"/><ellipse cx="382.01" cy="556.72" rx="50.26" ry="82" fill="#eecdc3" opacity="0.87" transform="rotate(378.68 382.01 622.85)"/><ellipse cx="382.01" cy="556.72" rx="50.26" ry="82" fill="#eecdc3" opacity="0.83" transform="rotate(428.22 382.01 622.85)"/><ellipse cx="382.01" cy="556.72" rx="50.26" ry="82" fill="#eecdc3" opacity="0.89" transform="rotate(481.07 382.01 622.85)"/><ellipse cx="382.01" cy="556.72" rx="50.26" ry="82" fill="#eecdc3" opacity="0.88" transform="rotate(532.26 382.01 622.85)"/><ellipse cx="382.01" cy="578.76" rx="33.51" ry="54.67" fill="#dfb1a4" opacity="0.87" transform="rotate(200.98 382.01 622.85)"/><ellipse cx="382.01" cy="578.76" rx="33.51" ry="54.67" fill="#dfb1a4" opacity="0.97" transform="rotate(248.73 382.01 622.85)"/><ellipse cx="382.01" cy="578.76" rx="33.51" ry="54.67" fill="#dfb1a4" opacity="0.96" transform="rotate(297.98 382.01 622.85)"/><ellipse cx="382.01" cy="578.76" rx="33.51" ry="54.67" fill="#dfb1a4" opacity="0.98" transform="rotate(350.04 382.01 622.85)"/><ellipse cx="382.01" cy="578.76" rx="33.51" ry="54.67" fill="#dfb1a4" opacity="0.88" transform="rotate(402.24 382.01 622.85)"/><ellipse cx="382.01" cy="578.76" rx="33.51" ry="54.67" fill="#dfb1a4" opacity="0.96" transform="rotate(455.21 382.01 622.85)"/><ellipse cx="382.01" cy="578.76" rx="33.51" ry="54.67" fill="#dfb1a4" opacity="0.91" transform="rotate(503.51 382.01 622.85)"/><ellipse cx="382.01" cy="600.8" rx="16.75" ry="27.33" fill="#cd9f92" opacity="0.86" transform="rotate(170.33 382.01 622.85)"/><ellipse cx="382.01" cy="600.8" rx="16.75" ry="27.33" fill="#cd9f92" opacity="0.85" transform="rotate(225.14 382.01 622.85)"/><ellipse cx="382.01" cy="600.8" rx="16.75" ry="27.33" fill="#cd9f92" opacity="0.94" transform="rotate(277.25 382.01 622.85)"/><ellipse cx="382.01" cy="600.8" rx="16.75" ry="27.33" fill="#cd9f92" opacity="0.86" transform="rotate(322.1 382.01 622.85)"/><ellipse cx="382.01" cy="600.8" rx="16.75" ry="27.33" fill="#cd9f92" opacity="0.83" transform="rotate(377.64 382.01 622.85)"/><ellipse cx="382.01" cy="600.8" rx="16.75" ry="27.33" fill="#cd9f92" opacity="0.84" transform="rotate(426.56 382.01 622.85)"/><ellipse cx="382.01" cy="600.8" rx="16.75" ry="27.33" fill="#cd9f92" opacity="0.84" transform="rotate(480.75 382.01 622.85)"/><circle cx="382.01" cy="622.85" r="22.49" fill="#f7e3dd"/><circle cx="382.01" cy="622.85" r="13.23" fill="#b49157" opacity="0.75"/>
</svg>