<svg xmlns="http://www.w3.org/2000/svg" viewBox="0 0 800 1000" width="800" height="1000" role="img" aria-hidden="true">
  <defs>
    <linearGradient id="bgg14895" x1="0" y1="0" x2="0.35" y2="1">
      <stop offset="0" stop-color="#f4f6f0"/>
      <stop offset="1" stop-color="#e4e9dc"/>
    </linearGradient>
    <radialGradient id="glowg14895" cx="0.5" cy="0.38" r="0.62">
      <stop offset="0" stop-color="#ffffff" stop-opacity="0.55"/>
      <stop offset="1" stop-color="#ffffff" stop-opacity="0"/>
    </radialGradient>
  </defs>
  <rect width="800" height="1000" fill="url(#bgg14895)"/>
  <rect width="800" height="1000" fill="url(#glowg14895)"/>
  <path d="M 386.98 1020 Q 241.6 839.69 173.19 659.37" fill="none" stroke="#45503a" stroke-width="8.8" stroke-linecap="round" opacity="0.55"/><path d="M 386.98 1020 Q 301.37 744.63 261.08 469.27" fill="none" stroke="#45503a" stroke-width="8.8" stroke-linecap="round" opacity="0.55"/><path d="M 386.98 1020 Q 323.16 828.12 293.13 636.23" fill="none" stroke="#45503a" stroke-width="8.8" stroke-linecap="round" opacity="0.55"/><path d="M 386.98 1020 Q 386.98 754.72 386.98 489.44" fill="none" stroke="#45503a" stroke-width="8.8" stroke-linecap="round" opacity="0.55"/><path d="M 386.98 1020 Q 436.35 765.63 459.58 511.26" fill="none" stroke="#45503a" stroke-width="8.8" stroke-linecap="round" opacity="0.55"/><path d="M 386.98 1020 Q 512.05 746.96 570.91 473.91" fill="none" stroke="#45503a" stroke-width="8.8" stroke-linecap="round" opacity="0.55"/><path d="M 386.98 1020 Q 472.8 772.39 513.19 524.78" fill="none" stroke="#45503a" stroke-width="8.8" stroke-linecap="round" opacity="0.55"/><ellipse cx="511.16" cy="568.23" rx="39.84" ry="109.04" fill="#8b9878" opacity="0.65" transform="rotate(-41.91 511.16 673.08)"/><ellipse cx="393.83" cy="665.67" rx="41.4" ry="113.32" fill="#45503a" opacity="0.83" transform="rotate(39.12 393.83 774.63)"/><ellipse cx="484.23" cy="616.11" rx="47" ry="128.63" fill="#6f7d5c" opacity="0.77" transform="rotate(52.4 484.23 739.79)"/><ellipse cx="240.39" cy="621.76" rx="46.83" ry="128.17" fill="#45503a" opacity="0.82" transform="rotate(32.48 240.39 745)"/><ellipse cx="278.38" cy="660.43" rx="41.97" ry="114.86" fill="#6f7d5c" opacity="0.67" transform="rotate(-30.02 278.38 770.88)"/><ellipse cx="269.4" cy="750.16" rx="40.87" ry="111.86" fill="#8b9878" opacity="0.87" transform="rotate(-75 269.4 857.72)"/><ellipse cx="317.73" cy="695.98" rx="28.95" ry="79.24" fill="#8b9878" opacity="0.81" transform="rotate(-50 317.73 772.17)"/><ellipse cx="335.36" cy="744.45" rx="39.09" ry="106.97" fill="#8b9878" opacity="0.83" transform="rotate(-25 335.36 847.31)"/><ellipse cx="386.98" cy="678.26" rx="39.14" ry="107.11" fill="#8b9878" opacity="0.79" transform="rotate(0 386.98 781.25)"/><ellipse cx="426.91" cy="695.69" rx="36.24" ry="99.19" fill="#8b9878" opacity="0.7" transform="rotate(25 426.91 791.06)"/><ellipse cx="488.14" cy="703.18" rx="27.01" ry="73.92" fill="#8b9878" opacity="0.78" transform="rotate(50 488.14 774.26)"/><ellipse cx="456.39" cy="683.23" rx="43.29" ry="118.48" fill="#6f7d5c" opacity="0.72" transform="rotate(75 456.39 797.15)"/><ellipse cx="261.08" cy="433.62" rx="27.09" ry="44.2" fill="#e8e2d0" opacity="0.9" transform="rotate(200.1 261.08 469.27)"/><ellipse cx="261.08" cy="433.62" rx="27.09" ry="44.2" fill="#e8e2d0" opacity="0.9" transform="rotate(274 261.08 469.27)"/><ellipse cx="261.08" cy="433.62" rx="27.09" ry="44.2" fill="#e8e2d0" opacity="0.97" transform="rotate(345.06 261.08 469.27)"/><ellipse cx="261.08" cy="433.62" rx="27.09" ry="44.2" fill="#e8e2d0" opacity="0.93" transform="rotate(417.33 261.08 469.27)"/><ellipse cx="261.08" cy="433.62" rx="27.09" ry="44.2" fill="#e8e2d0" opacity="0.86" transform="rotate(490.63 261.08 469.27)"/><ellipse cx="261.08" cy="445.5" rx="18.06" ry="29.47" fill="#cfd6bd" opacity="0.91" transform="rotate(164.33 261.08 469.27)"/><ellipse cx="261.08" cy="445.5" rx="18.06" ry="29.47" fill="#cfd6bd" opacity="0.86" transform="rotate(239.3 261.08 469.27)"/><ellipse cx="261.08" cy="445.5" rx="18.06" ry="29.47" fill="#cfd6bd" opacity="0.85" transform="rotate(310.7 261.08 469.27)"/><ellipse cx="261.08" cy="445.5" rx="18.06" ry="29.47" fill="#cfd6bd" opacity="0.97" transform="rotate(382.84 261.08 469.27)"/><ellipse cx="261.08" cy="445.5" rx="18.06" ry="29.47" fill="#cfd6bd" opacity="0.95" transform="rotate(452.01 261.08 469.27)"/><ellipse cx="261.08" cy="457.38" rx="9.03" ry="14.73" fill="#a7b394" opacity="0.89" transform="rotate(131.19 261.08 469.27)"/><ellipse cx="261.08" cy="457.38" rx="9.03" ry="14.73" fill="#a7b394" opacity="0.85" transform="rotate(197.21 261.08 469.27)"/><ellipse cx="261.08" cy="457.38" rx="9.03" ry="14.73" fill="#a7b394" opacity="0.97" transform="rotate(272.04 261.08 469.27)"/><ellipse cx="261.08" cy="457.38" rx="9.03" ry="14.73" fill="#a7b394" opacity="0.92" transform="rotate(342.66 261.08 469.27)"/><ellipse cx="261.08" cy="457.38" rx="9.03" ry="14.73" fill="#a7b394" opacity="0.83" transform="rotate(414.39 261.08 469.27)"/><circle cx="261.08" cy="469.27" r="12.12" fill="#f7f4ea"/><circle cx="261.08" cy="469.27" r="7.13" fill="#8b9878" opacity="0.75"/><ellipse cx="570.91" cy="435.56" rx="29.15" ry="47.56" fill="#e8e2d0" opacity="0.87" transform="rotate(194.55 570.91 473.91)"/><ellipse cx="570.91" cy="435.56" rx="29.15" ry="47.56" fill="#e8e2d0" opacity="0.9" transform="rotate(242.46 570.91 473.91)"/><ellipse cx="570.91" cy="435.56" rx="29.15" ry="47.56" fill="#e8e2d0" opacity="0.89" transform="rotate(282.1 570.91 473.91)"/><ellipse cx="570.91" cy="435.56" rx="29.15" ry="47.56" fill="#e8e2d0" opacity="0.96" transform="rotate(332.01 570.91 473.91)"/><ellipse cx="570.91" cy="435.56" rx="29.15" ry="47.56" fill="#e8e2d0" opacity="0.87" transform="rotate(375.3 570.91 473.91)"/><ellipse cx="570.91" cy="435.56" rx="29.15" ry="47.56" fill="#e8e2d0" opacity="0.89" transform="rotate(417.47 570.91 473.91)"/><ellipse cx="570.91" cy="435.56" rx="29.15" ry="47.56" fill="#e8e2d0" opacity="0.9" transform="rotate(463.15 570.91 473.91)"/><ellipse cx="570.91" cy="435.56" rx="29.15" ry="47.56" fill="#e8e2d0" opacity="0.84" transform="rotate(513.09 570.91 473.91)"/><ellipse cx="570.91" cy="448.34" rx="19.43" ry="31.71" fill="#cfd6bd" opacity="0.85" transform="rotate(176.04 570.91 473.91)"/><ellipse cx="570.91" cy="448.34" rx="19.43" ry="31.71" fill="#cfd6bd" opacity="0.88" transform="rotate(218.88 570.91 473.91)"/><ellipse cx="570.91" cy="448.34" rx="19.43" ry="31.71" fill="#cfd6bd" opacity="0.93" transform="rotate(260.96 570.91 473.91)"/><ellipse cx="570.91" cy="448.34" rx="19.43" ry="31.71" fill="#cfd6bd" opacity="0.9" transform="rotate(304.61 570.91 473.91)"/><ellipse cx="570.91" cy="448.34" rx="19.43" ry="31.71" fill="#cfd6bd" opacity="0.94" transform="rotate(352.13 570.91 473.91)"/><ellipse cx="570.91" cy="448.34" rx="19.43" ry="31.71" fill="#cfd6bd" opacity="0.92" transform="rotate(397.78 570.91 473.91)"/><ellipse cx="570.91" cy="448.34" rx="19.43" ry="31.71" fill="#cfd6bd" opacity="0.96" transform="rotate(444.44 570.91 473.91)"/><ellipse cx="570.91" cy="448.34" rx="19.43" ry="31.71" fill="#cfd6bd" opacity="0.94" transform="rotate(487.06 570.91 473.91)"/><ellipse cx="570.91" cy="461.13" rx="9.72" ry="15.85" fill="#a7b394" opacity="0.84" transform="rotate(146.73 570.91 473.91)"/><ellipse cx="570.91" cy="461.13" rx="9.72" ry="15.85" fill="#a7b394" opacity="0.88" transform="rotate(194.54 570.91 473.91)"/><ellipse cx="570.91" cy="461.13" rx="9.72" ry="15.85" fill="#a7b394" opacity="0.94" transform="rotate(244.19 570.91 473.91)"/><ellipse cx="570.91" cy="461.13" rx="9.72" ry="15.85" fill="#a7b394" opacity="0.95" transform="rotate(284.12 570.91 473.91)"/><ellipse cx="570.91" cy="461.13" rx="9.72" ry="15.85" fill="#a7b394" opacity="0.88" transform="rotate(331.41 570.91 473.91)"/><ellipse cx="570.91" cy="461.13" rx="9.72" ry="15.85" fill="#a7b394" opacity="0.97" transform="rotate(371.63 570.91 473.91)"/><ellipse cx="570.91" cy="461.13" rx="9.72" ry="15.85" fill="#a7b394" opacity="0.86" transform="rotate(424.28 570.91 473.91)"/><ellipse cx="570.91" cy="461.13" rx="9.72" ry="15.85" fill="#a7b394" opacity="0.84" transform="rotate(464.72 570.91 473.91)"/><circle cx="570.91" cy="473.91" r="13.04" fill="#f7f4ea"/><circle cx="570.91" cy="473.91" r="7.67" fill="#8b9878" opacity="0.75"/><ellipse cx="386.98" cy="445.29" rx="33.55" ry="54.74" fill="#e8e2d0" opacity="0.89" transform="rotate(98.93 386.98 489.44)"/><ellipse cx="386.98" cy="445.29" rx="33.55" ry="54.74" fill="#e8e2d0" opacity="0.84" transform="rotate(151 386.98 489.44)"/><ellipse cx="386.98" cy="445.29" rx="33.55" ry="54.74" fill="#e8e2d0" opacity="0.85" transform="rotate(199.36 386.98 489.44)"/><ellipse cx="386.98" cy="445.29" rx="33.55" ry="54.74" fill="#e8e2d0" opacity="0.96" transform="rotate(252.9 386.98 489.44)"/><ellipse cx="386.98" cy="445.29" rx="33.55" ry="54.74" fill="#e8e2d0" opacity="0.94" transform="rotate(305.51 386.98 489.44)"/><ellipse cx="386.98" cy="445.29" rx="33.55" ry="54.74" fill="#e8e2d0" opacity="0.92" transform="rotate(356.81 386.98 489.44)"/><ellipse cx="386.98" cy="445.29" rx="33.55" ry="54.74" fill="#e8e2d0" opacity="0.91" transform="rotate(408.6 386.98 489.44)"/><ellipse cx="386.98" cy="460.01" rx="22.37" ry="36.49" fill="#cfd6bd" opacity="0.96" transform="rotate(69.53 386.98 489.44)"/><ellipse cx="386.98" cy="460.01" rx="22.37" ry="36.49" fill="#cfd6bd" opacity="0.91" transform="rotate(120.17 386.98 489.44)"/><ellipse cx="386.98" cy="460.01" rx="22.37" ry="36.49" fill="#cfd6bd" opacity="0.83" transform="rotate(173.19 386.98 489.44)"/><ellipse cx="386.98" cy="460.01" rx="22.37" ry="36.49" fill="#cfd6bd" opacity="0.96" transform="rotate(223.66 386.98 489.44)"/><ellipse cx="386.98" cy="460.01" rx="22.37" ry="36.49" fill="#cfd6bd" opacity="0.85" transform="rotate(278.89 386.98 489.44)"/><ellipse cx="386.98" cy="460.01" rx="22.37" ry="36.49" fill="#cfd6bd" opacity="0.97" transform="rotate(326 386.98 489.44)"/><ellipse cx="386.98" cy="460.01" rx="22.37" ry="36.49" fill="#cfd6bd" opacity="0.91" transform="rotate(382.89 386.98 489.44)"/><ellipse cx="386.98" cy="474.73" rx="11.18" ry="18.25" fill="#a7b394" opacity="0.94" transform="rotate(46.29 386.98 489.44)"/><ellipse cx="386.98" cy="474.73" rx="11.18" ry="18.25" fill="#a7b394" opacity="0.9" transform="rotate(95.5 386.98 489.44)"/><ellipse cx="386.98" cy="474.73" rx="11.18" ry="18.25" fill="#a7b394" opacity="0.87" transform="rotate(151.4 386.98 489.44)"/><ellipse cx="386.98" cy="474.73" rx="11.18" ry="18.25" fill="#a7b394" opacity="0.85" transform="rotate(200.69 386.98 489.44)"/><ellipse cx="386.98" cy="474.73" rx="11.18" ry="18.25" fill="#a7b394" opacity="0.88" transform="rotate(249.8 386.98 489.44)"/><ellipse cx="386.98" cy="474.73" rx="11.18" ry="18.25" fill="#a7b394" opacity="0.89" transform="rotate(300.52 386.98 489.44)"/><ellipse cx="386.98" cy="474.73" rx="11.18" ry="18.25" fill="#a7b394" opacity="0.89" transform="rotate(352.22 386.98 489.44)"/><circle cx="386.98" cy="489.44" r="15.01" fill="#f7f4ea"/><circle cx="386.98" cy="489.44" r="8.83" fill="#8b9878" opacity="0.75"/><ellipse cx="459.58" cy="458.93" rx="39.76" ry="64.88" fill="#e8e2d0" opacity="0.91" transform="rotate(129.69 459.58 511.26)"/><ellipse cx="459.58" cy="458.93" rx="39.76" ry="64.88" fill="#e8e2d0" opacity="0.84" transform="rotate(194.94 459.58 511.26)"/><ellipse cx="459.58" cy="458.93" rx="39.76" ry="64.88" fill="#e8e2d0" opacity="0.88" transform="rotate(250.48 459.58 511.26)"/><ellipse cx="459.58" cy="458.93" rx="39.76" ry="64.88" fill="#e8e2d0" opacity="0.89" transform="rotate(312.19 459.58 511.26)"/><ellipse cx="459.58" cy="458.93" rx="39.76" ry="64.88" fill="#e8e2d0" opacity="0.85" transform="rotate(367.73 459.58 511.26)"/><ellipse cx="459.58" cy="458.93" rx="39.76" ry="64.88" fill="#e8e2d0" opacity="0.89" transform="rotate(435.21 459.58 511.26)"/><ellipse cx="459.58" cy="476.37" rx="26.51" ry="43.25" fill="#cfd6bd" opacity="0.96" transform="rotate(102.41 459.58 511.26)"/><ellipse cx="459.58" cy="476.37" rx="26.51" ry="43.25" fill="#cfd6bd" opacity="0.86" transform="rotate(161.68 459.58 511.26)"/><ellipse cx="459.58" cy="476.37" rx="26.51" ry="43.25" fill="#cfd6bd" opacity="0.9" transform="rotate(224.56 459.58 511.26)"/><ellipse cx="459.58" cy="476.37" rx="26.51" ry="43.25" fill="#cfd6bd" opacity="0.91" transform="rotate(278.14 459.58 511.26)"/><ellipse cx="459.58" cy="476.37" rx="26.51" ry="43.25" fill="#cfd6bd" opacity="0.91" transform="rotate(342.43 459.58 511.26)"/><ellipse cx="459.58" cy="476.37" rx="26.51" ry="43.25" fill="#cfd6bd" opacity="0.95" transform="rotate(401.27 459.58 511.26)"/><ellipse cx="459.58" cy="493.81" rx="13.25" ry="21.63" fill="#a7b394" opacity="0.92" transform="rotate(70.82 459.58 511.26)"/><ellipse cx="459.58" cy="493.81" rx="13.25" ry="21.63" fill="#a7b394" opacity="0.97" transform="rotate(128.17 459.58 511.26)"/><ellipse cx="459.58" cy="493.81" rx="13.25" ry="21.63" fill="#a7b394" opacity="0.88" transform="rotate(193.43 459.58 511.26)"/><ellipse cx="459.58" cy="493.81" rx="13.25" ry="21.63" fill="#a7b394" opacity="0.94" transform="rotate(247.95 459.58 511.26)"/><ellipse cx="459.58" cy="493.81" rx="13.25" ry="21.63" fill="#a7b394" opacity="0.89" transform="rotate(310.2 459.58 511.26)"/><ellipse cx="459.58" cy="493.81" rx="13.25" ry="21.63" fill="#a7b394" opacity="0.91" transform="rotate(372.53 459.58 511.26)"/><circle cx="459.58" cy="511.26" r="17.79" fill="#f7f4ea"/><circle cx="459.58" cy="511.26" r="10.46" fill="#8b9878" opacity="0.75"/><ellipse cx="513.19" cy="482.31" rx="32.28" ry="52.67" fill="#e8e2d0" opacity="0.91" transform="rotate(252.68 513.19 524.78)"/><ellipse cx="513.19" cy="482.31" rx="32.28" ry="52.67" fill="#e8e2d0" opacity="0.89" transform="rotate(301.38 513.19 524.78)"/><ellipse cx="513.19" cy="482.31" rx="32.28" ry="52.67" fill="#e8e2d0" opacity="0.95" transform="rotate(354.06 513.19 524.78)"/><ellipse cx="513.19" cy="482.31" rx="32.28" ry="52.67" fill="#e8e2d0" opacity="0.97" transform="rotate(409.03 513.19 524.78)"/><ellipse cx="513.19" cy="482.31" rx="32.28" ry="52.67" fill="#e8e2d0" opacity="0.95" transform="rotate(458.16 513.19 524.78)"/><ellipse cx="513.19" cy="482.31" rx="32.28" ry="52.67" fill="#e8e2d0" opacity="0.92" transform="rotate(506.06 513.19 524.78)"/><ellipse cx="513.19" cy="482.31" rx="32.28" ry="52.67" fill="#e8e2d0" opacity="0.9" transform="rotate(560.24 513.19 524.78)"/><ellipse cx="513.19" cy="496.47" rx="21.52" ry="35.11" fill="#cfd6bd" opacity="0.89" transform="rotate(224.9 513.19 524.78)"/><ellipse cx="513.19" cy="496.47" rx="21.52" ry="35.11" fill="#cfd6bd" opacity="0.91" transform="rotate(280.58 513.19 524.78)"/><ellipse cx="513.19" cy="496.47" rx="21.52" ry="35.11" fill="#cfd6bd" opacity="0.89" transform="rotate(327.82 513.19 524.78)"/><ellipse cx="513.19" cy="496.47" rx="21.52" ry="35.11" fill="#cfd6bd" opacity="0.94" transform="rotate(382.94 513.19 524.78)"/><ellipse cx="513.19" cy="496.47" rx="21.52" ry="35.11" fill="#cfd6bd" opacity="0.91" transform="rotate(433.48 513.19 524.78)"/><ellipse cx="513.19" cy="496.47" rx="21.52" ry="35.11" fill="#cfd6bd" opacity="0.92" transform="rotate(481.8 513.19 524.78)"/><ellipse cx="513.19" cy="496.47" rx="21.52" ry="35.11" fill="#cfd6bd" opacity="0.86" transform="rotate(531.48 513.19 524.78)"/><ellipse cx="513.19" cy="510.63" rx="10.76" ry="17.56" fill="#a7b394" opacity="0.95" transform="rotate(199.14 513.19 524.78)"/><ellipse cx="513.19" cy="510.63" rx="10.76" ry="17.56" fill="#a7b394" opacity="0.89" transform="rotate(250.42 513.19 524.78)"/><ellipse cx="513.19" cy="510.63" rx="10.76" ry="17.56" fill="#a7b394" opacity="0.95" transform="rotate(306.6 513.19 524.78)"/><ellipse cx="513.19" cy="510.63" rx="10.76" ry="17.56" fill="#a7b394" opacity="0.96" transform="rotate(357.89 513.19 524.78)"/><ellipse cx="513.19" cy="510.63" rx="10.76" ry="17.56" fill="#a7b394" opacity="0.83" transform="rotate(403.6 513.19 524.78)"/><ellipse cx="513.19" cy="510.63" rx="10.76" ry="17.56" fill="#a7b394" opacity="0.93" transform="rotate(455.25 513.19 524.78)"/><ellipse cx="513.19" cy="510.63" rx="10.76" ry="17.56" fill="#a7b394" opacity="0.9" transform="rotate(509.81 513.19 524.78)"/><circle cx="513.19" cy="524.78" r="14.44" fill="#f7f4ea"/><circle cx="513.19" cy="524.78" r="8.5" fill="#8b9878" opacity="0.75"/><ellipse cx="293.13" cy="573.77" rx="47.47" ry="77.45" fill="#e8e2d0" opacity="0.95" transform="rotate(268.82 293.13 636.23)"/><ellipse cx="293.13" cy="573.77" rx="47.47" ry="77.45" fill="#e8e2d0" opacity="0.9" transform="rotate(325.96 293.13 636.23)"/><ellipse cx="293.13" cy="573.77" rx="47.47" ry="77.45" fill="#e8e2d0" opacity="0.91" transform="rotate(386.36 293.13 636.23)"/><ellipse cx="293.13" cy="573.77" rx="47.47" ry="77.45" fill="#e8e2d0" opacity="0.89" transform="rotate(449.15 293.13 636.23)"/><ellipse cx="293.13" cy="573.77" rx="47.47" ry="77.45" fill="#e8e2d0" opacity="0.87" transform="rotate(505.83 293.13 636.23)"/><ellipse cx="293.13" cy="573.77" rx="47.47" ry="77.45" fill="#e8e2d0" opacity="0.85" transform="rotate(564.55 293.13 636.23)"/><ellipse cx="293.13" cy="594.59" rx="31.65" ry="51.63" fill="#cfd6bd" opacity="0.91" transform="rotate(232.89 293.13 636.23)"/><ellipse cx="293.13" cy="594.59" rx="31.65" ry="51.63" fill="#cfd6bd" opacity="0.85" transform="rotate(298.35 293.13 636.23)"/><ellipse cx="293.13" cy="594.59" rx="31.65" ry="51.63" fill="#cfd6bd" opacity="0.84" transform="rotate(355.84 293.13 636.23)"/><ellipse cx="293.13" cy="594.59" rx="31.65" ry="51.63" fill="#cfd6bd" opacity="0.83" transform="rotate(419.61 293.13 636.23)"/><ellipse cx="293.13" cy="594.59" rx="31.65" ry="51.63" fill="#cfd6bd" opacity="0.88" transform="rotate(475.68 293.13 636.23)"/><ellipse cx="293.13" cy="594.59" rx="31.65" ry="51.63" fill="#cfd6bd" opacity="0.85" transform="rotate(535.1 293.13 636.23)"/><ellipse cx="293.13" cy="615.41" rx="15.82" ry="25.82" fill="#a7b394" opacity="0.94" transform="rotate(204.66 293.13 636.23)"/><ellipse cx="293.13" cy="615.41" rx="15.82" ry="25.82" fill="#a7b394" opacity="0.88" transform="rotate(264.19 293.13 636.23)"/><ellipse cx="293.13" cy="615.41" rx="15.82" ry="25.82" fill="#a7b394" opacity="0.82" transform="rotate(322.58 293.13 636.23)"/><ellipse cx="293.13" cy="615.41" rx="15.82" ry="25.82" fill="#a7b394" opacity="0.82" transform="rotate(384.6 293.13 636.23)"/><ellipse cx="293.13" cy="615.41" rx="15.82" ry="25.82" fill="#a7b394" opacity="0.95" transform="rotate(445.28 293.13 636.23)"/><ellipse cx="293.13" cy="615.41" rx="15.82" ry="25.82" fill="#a7b394" opacity="0.91" transform="rotate(509.48 293.13 636.23)"/><circle cx="293.13" cy="636.23" r="21.24" fill="#f7f4ea"/><circle cx="293.13" cy="636.23" r="12.49" fill="#8b9878" opacity="0.75"/><ellipse cx="173.19" cy="597.34" rx="47.15" ry="76.92" fill="#e8e2d0" opacity="0.88" transform="rotate(96.56 173.19 659.37)"/><ellipse cx="173.19" cy="597.34" rx="47.15" ry="76.92" fill="#e8e2d0" opacity="0.87" transform="rotate(153.2 173.19 659.37)"/><ellipse cx="173.19" cy="597.34" rx="47.15" ry="76.92" fill="#e8e2d0" opacity="0.93" transform="rotate(198.78 173.19 659.37)"/><ellipse cx="173.19" cy="597.34" rx="47.15" ry="76.92" fill="#e8e2d0" opacity="0.92" transform="rotate(250.96 173.19 659.37)"/><ellipse cx="173.19" cy="597.34" rx="47.15" ry="76.92" fill="#e8e2d0" opacity="0.98" transform="rotate(303.12 173.19 659.37)"/><ellipse cx="173.19" cy="597.34" rx="47.15" ry="76.92" fill="#e8e2d0" opacity="0.93" transform="rotate(355.41 173.19 659.37)"/><ellipse cx="173.19" cy="597.34" rx="47.15" ry="76.92" fill="#e8e2d0" opacity="0.92" transform="rotate(407.07 173.19 659.37)"/><ellipse cx="173.19" cy="618.02" rx="31.43" ry="51.28" fill="#cfd6bd" opacity="0.92" transform="rotate(69.89 173.19 659.37)"/><ellipse cx="173.19" cy="618.02" rx="31.43" ry="51.28" fill="#cfd6bd" opacity="0.86" transform="rotate(119.83 173.19 659.37)"/><ellipse cx="173.19" cy="618.02" rx="31.43" ry="51.28" fill="#cfd6bd" opacity="0.93" transform="rotate(174.48 173.19 659.37)"/><ellipse cx="173.19" cy="618.02" rx="31.43" ry="51.28" fill="#cfd6bd" opacity="0.9" transform="rotate(228.31 173.19 659.37)"/><ellipse cx="173.19" cy="618.02" rx="31.43" ry="51.28" fill="#cfd6bd" opacity="0.84" transform="rotate(279.13 173.19 659.37)"/><ellipse cx="173.19" cy="618.02" rx="31.43" ry="51.28" fill="#cfd6bd" opacity="0.86" transform="rotate(326.59 173.19 659.37)"/><ellipse cx="173.19" cy="618.02" rx="31.43" ry="51.28" fill="#cfd6bd" opacity="0.82" transform="rotate(382.14 173.19 659.37)"/><ellipse cx="173.19" cy="638.7" rx="15.72" ry="25.64" fill="#a7b394" opacity="0.87" transform="rotate(48.74 173.19 659.37)"/><ellipse cx="173.19" cy="638.7" rx="15.72" ry="25.64" fill="#a7b394" opacity="0.88" transform="rotate(94.76 173.19 659.37)"/><ellipse cx="173.19" cy="638.7" rx="15.72" ry="25.64" fill="#a7b394" opacity="0.96" transform="rotate(149.44 173.19 659.37)"/><ellipse cx="173.19" cy="638.7" rx="15.72" ry="25.64" fill="#a7b394" opacity="0.9" transform="rotate(203.13 173.19 659.37)"/><ellipse cx="173.19" cy="638.7" rx="15.72" ry="25.64" fill="#a7b394" opacity="0.85" transform="rotate(253.22 173.19 659.37)"/><ellipse cx="173.19" cy="638.7" rx="15.72" ry="25.64" fill="#a7b394" opacity="0.94" transform="rotate(306.23 173.19 659.37)"/><ellipse cx="173.19" cy="638.7" rx="15.72" ry="25.64" fill="#a7b394" opacity="0.92" transform="rotate(354.27 173.19 659.37)"/><circle cx="173.19" cy="659.37" r="21.09" fill="#f7f4ea"/><circle cx="173.19" cy="659.37" r="12.41" fill="#8b9878" opacity="0.75"/>
</svg>