<svg xmlns="http://www.w3.org/2000/svg" viewBox="0 0 800 1000" width="800" height="1000" role="img" aria-hidden="true">
  <defs>
    <linearGradient id="bgg70133" x1="0" y1="0" x2="0.35" y2="1">
      <stop offset="0" stop-color="#f4f6f0"/>
      <stop offset="1" stop-color="#e4e9dc"/>
    </linearGradient>
    <radialGradient id="glowg70133" cx="0.5" cy="0.38" r="0.62">
      <stop offset="0" stop-color="#ffffff" stop-opacity="0.55"/>
      <stop offset="1" stop-color="#ffffff" stop-opacity="0"/>
    </radialGradient>
  </defs>
  <rect width="800" height="1000" fill="url(#bgg70133)"/>
  <rect width="800" height="1000" fill="url(#glowg70133)"/>
  <path d="M 400.15 1020 Q 240.09 728.84 164.77 437.69" fill="none" stroke="#45503a" stroke-width="8.8" stroke-linecap="round" opacity="0.55"/><path d="M 400.15 1020 Q 232.66 713.5 153.85 407" fill="none" stroke="#45503a" stroke-width="8.8" stroke-linecap="round" opacity="0.55"/><path d="M 400.15 1020 Q 312.89 752.18 271.82 484.36" fill="none" stroke="#45503a" stroke-width="8.8" stroke-linecap="round" opacity="0.55"/><path d="M 400.15 1020 Q 400.15 737.7 400.15 455.4" fill="none" stroke="#45503a" stroke-width="8.8" stroke-linecap="round" opacity="0.55"/><path d="M 400.15 1020 Q 473.71 778.05 508.32 536.09" fill="none" stroke="#45503a" stroke-width="8.8" stroke-linecap="round" opacity="0.55"/><path d="M 400.15 1020 Q 567.74 795.32 646.61 570.63" fill="none" stroke="#45503a" stroke-width="8.8" stroke-linecap="round" opacity="0.55"/><path d="M 400.15 1020 Q 584.62 710.08 671.43 400.16" fill="none" stroke="#45503a" stroke-width="8.8" stroke-linecap="round" opacity="0.55"/><ellipse cx="520.74" cy="562.03" rx="48.05" ry="131.5" fill="#8b9878" opacity="0.75" transform="rotate(-58.98 520.74 688.47)"/><ellipse cx="210.32" cy="510.22" rx="46.38" ry="126.93" fill="#8b9878" opacity="0.71" transform="rotate(-65.36 210.32 632.27)"/><ellipse cx="178.8" cy="440.05" rx="47.23" ry="129.25" fill="#6f7d5c" opacity="0.67" transform="rotate(-27.3 178.8 564.33)"/><ellipse cx="90.87" cy="510.11" rx="32.51" ry="88.96" fill="#6f7d5c" opacity="0.7" transform="rotate(-68.02 90.87 595.65)"/><ellipse cx="454.52" cy="638.84" rx="51.78" ry="141.72" fill="#6f7d5c" opacity="0.63" transform="rotate(-39.98 454.52 775.11)"/><ellipse cx="270.69" cy="720.95" rx="27.8" ry="76.07" fill="#6f7d5c" opacity="0.73" transform="rotate(-93.75 270.69 794.1)"/><ellipse cx="264.68" cy="679.7" rx="38.95" ry="106.6" fill="#8b9878" opacity="0.87" transform="rotate(-62.5 264.68 782.2)"/><ellipse cx="329.57" cy="704.94" rx="40.76" ry="111.56" fill="#45503a" opacity="0.74" transform="rotate(-31.25 329.57 812.21)"/><ellipse cx="400.15" cy="698.87" rx="38.8" ry="106.19" fill="#6f7d5c" opacity="0.67" transform="rotate(0 400.15 800.97)"/><ellipse cx="459.64" cy="752.87" rx="30.18" ry="82.59" fill="#45503a" opacity="0.72" transform="rotate(31.25 459.64 832.28)"/><ellipse cx="535.7" cy="754.47" rx="34.66" ry="94.86" fill="#45503a" opacity="0.67" transform="rotate(62.5 535.7 845.68)"/><ellipse cx="549.35" cy="680.63" rx="37.59" ry="102.87" fill="#8b9878" opacity="0.83" transform="rotate(93.75 549.35 779.54)"/><ellipse cx="671.43" cy="351.43" rx="37.03" ry="60.42" fill="#e8e2d0" opacity="0.82" transform="rotate(412.36 671.43 400.16)"/><ellipse cx="671.43" cy="351.43" rx="37.03" ry="60.42" fill="#e8e2d0" opacity="0.85" transform="rotate(455.98 671.43 400.16)"/><ellipse cx="671.43" cy="351.43" rx="37.03" ry="60.42" fill="#e8e2d0" opacity="0.91" transform="rotate(500.4 671.43 400.16)"/><ellipse cx="671.43" cy="351.43" rx="37.03" ry="60.42" fill="#e8e2d0" opacity="0.83" transform="rotate(551.08 671.43 400.16)"/><ellipse cx="671.43" cy="351.43" rx="37.03" ry="60.42" fill="#e8e2d0" opacity="0.89" transform="rotate(596.6 671.43 400.16)"/><ellipse cx="671.43" cy="351.43" rx="37.03" ry="60.42" fill="#e8e2d0" opacity="0.98" transform="rotate(635.82 671.43 400.16)"/><ellipse cx="671.43" cy="351.43" rx="37.03" ry="60.42" fill="#e8e2d0" opacity="0.91" transform="rotate(680.9 671.43 400.16)"/><ellipse cx="671.43" cy="351.43" rx="37.03" ry="60.42" fill="#e8e2d0" opacity="0.84" transform="rotate(732.94 671.43 400.16)"/><ellipse cx="671.43" cy="367.67" rx="24.69" ry="40.28" fill="#cfd6bd" opacity="0.86" transform="rotate(395.79 671.43 400.16)"/><ellipse cx="671.43" cy="367.67" rx="24.69" ry="40.28" fill="#cfd6bd" opacity="0.93" transform="rotate(434.87 671.43 400.16)"/><ellipse cx="671.43" cy="367.67" rx="24.69" ry="40.28" fill="#cfd6bd" opacity="0.89" transform="rotate(483.11 671.43 400.16)"/><ellipse cx="671.43" cy="367.67" rx="24.69" ry="40.28" fill="#cfd6bd" opacity="0.98" transform="rotate(530.67 671.43 400.16)"/><ellipse cx="671.43" cy="367.67" rx="24.69" ry="40.28" fill="#cfd6bd" opacity="0.93" transform="rotate(572.45 671.43 400.16)"/><ellipse cx="671.43" cy="367.67" rx="24.69" ry="40.28" fill="#cfd6bd" opacity="0.85" transform="rotate(615.38 671.43 400.16)"/><ellipse cx="671.43" cy="367.67" rx="24.69" ry="40.28" fill="#cfd6bd" opacity="0.93" transform="rotate(663 671.43 400.16)"/><ellipse cx="671.43" cy="367.67" rx="24.69" ry="40.28" fill="#cfd6bd" opacity="0.91" transform="rotate(706.23 671.43 400.16)"/><ellipse cx="671.43" cy="383.91" rx="12.34" ry="20.14" fill="#a7b394" opacity="0.95" transform="rotate(367.73 671.43 400.16)"/><ellipse cx="671.43" cy="383.91" rx="12.34" ry="20.14" fill="#a7b394" opacity="0.82" transform="rotate(411.05 671.43 400.16)"/><ellipse cx="671.43" cy="383.91" rx="12.34" ry="20.14" fill="#a7b394" opacity="0.93" transform="rotate(457.41 671.43 400.16)"/><ellipse cx="671.43" cy="383.91" rx="12.34" ry="20.14" fill="#a7b394" opacity="0.94" transform="rotate(507.26 671.43 400.16)"/><ellipse cx="671.43" cy="383.91" rx="12.34" ry="20.14" fill="#a7b394" opacity="0.97" transform="rotate(551.5 671.43 400.16)"/><ellipse cx="671.43" cy="383.91" rx="12.34" ry="20.14" fill="#a7b394" opacity="0.91" transform="rotate(593.58 671.43 400.16)"/><ellipse cx="671.43" cy="383.91" rx="12.34" ry="20.14" fill="#a7b394" opacity="0.88" transform="rotate(639.76 671.43 400.16)"/><ellipse cx="671.43" cy="383.91" rx="12.34" ry="20.14" fill="#a7b394" opacity="0.92" transform="rotate(682.97 671.43 400.16)"/><circle cx="671.43" cy="400.16" r="16.57" fill="#f7f4ea"/><circle cx="671.43" cy="400.16" r="9.75" fill="#8b9878" opacity="0.75"/><ellipse cx="153.85" cy="343.47" rx="48.28" ry="78.78" fill="#e8e2d0" opacity="0.94" transform="rotate(346.86 153.85 407)"/><ellipse cx="153.85" cy="343.47" rx="48.28" ry="78.78" fill="#e8e2d0" opacity="0.89" transform="rotate(421.77 153.85 407)"/><ellipse cx="153.85" cy="343.47" rx="48.28" ry="78.78" fill="#e8e2d0" opacity="0.96" transform="rotate(490.7 153.85 407)"/><ellipse cx="153.85" cy="343.47" rx="48.28" ry="78.78" fill="#e8e2d0" opacity="0.85" transform="rotate(567.78 153.85 407)"/><ellipse cx="153.85" cy="343.47" rx="48.28" ry="78.78" fill="#e8e2d0" opacity="0.84" transform="rotate(638.38 153.85 407)"/><ellipse cx="153.85" cy="364.64" rx="32.19" ry="52.52" fill="#cfd6bd" opacity="0.88" transform="rotate(311.87 153.85 407)"/><ellipse cx="153.85" cy="364.64" rx="32.19" ry="52.52" fill="#cfd6bd" opacity="0.9" transform="rotate(381.91 153.85 407)"/><ellipse cx="153.85" cy="364.64" rx="32.19" ry="52.52" fill="#cfd6bd" opacity="0.93" transform="rotate(454.92 153.85 407)"/><ellipse cx="153.85" cy="364.64" rx="32.19" ry="52.52" fill="#cfd6bd" opacity="0.94" transform="rotate(532.88 153.85 407)"/><ellipse cx="153.85" cy="364.64" rx="32.19" ry="52.52" fill="#cfd6bd" opacity="0.85" transform="rotate(603.96 153.85 407)"/><ellipse cx="153.85" cy="385.82" rx="16.09" ry="26.26" fill="#a7b394" opacity="0.85" transform="rotate(273.95 153.85 407)"/><ellipse cx="153.85" cy="385.82" rx="16.09" ry="26.26" fill="#a7b394" opacity="0.94" transform="rotate(351.57 153.85 407)"/><ellipse cx="153.85" cy="385.82" rx="16.09" ry="26.26" fill="#a7b394" opacity="0.91" transform="rotate(424.42 153.85 407)"/><ellipse cx="153.85" cy="385.82" rx="16.09" ry="26.26" fill="#a7b394" opacity="0.95" transform="rotate(493.06 153.85 407)"/><ellipse cx="153.85" cy="385.82" rx="16.09" ry="26.26" fill="#a7b394" opacity="0.83" transform="rotate(562.24 153.85 407)"/><circle cx="153.85" cy="407" r="21.6" fill="#f7f4ea"/><circle cx="153.85" cy="407" r="12.71" fill="#8b9878" opacity="0.75"/><ellipse cx="164.77" cy="395.6" rx="31.98" ry="52.18" fill="#e8e2d0" opacity="0.95" transform="rotate(168.65 164.77 437.69)"/><ellipse cx="164.77" cy="395.6" rx="31.98" ry="52.18" fill="#e8e2d0" opacity="0.97" transform="rotate(221.92 164.77 437.69)"/><ellipse cx="164.77" cy="395.6" rx="31.98" ry="52.18" fill="#e8e2d0" opacity="0.9" transform="rotate(269.42 164.77 437.69)"/><ellipse cx="164.77" cy="395.6" rx="31.98" ry="52.18" fill="#e8e2d0" opacity="0.96" transform="rotate(319.9 164.77 437.69)"/><ellipse cx="164.77" cy="395.6" rx="31.98" ry="52.18" fill="#e8e2d0" opacity="0.93" transform="rotate(370.34 164.77 437.69)"/><ellipse cx="164.77" cy="395.6" rx="31.98" ry="52.18" fill="#e8e2d0" opacity="0.95" transform="rotate(422.94 164.77 437.69)"/><ellipse cx="164.77" cy="395.6" rx="31.98" ry="52.18" fill="#e8e2d0" opacity="0.84" transform="rotate(475.6 164.77 437.69)"/><ellipse cx="164.77" cy="409.63" rx="21.32" ry="34.79" fill="#cfd6bd" opacity="0.83" transform="rotate(144.95 164.77 437.69)"/><ellipse cx="164.77" cy="409.63" rx="21.32" ry="34.79" fill="#cfd6bd" opacity="0.87" transform="rotate(192.86 164.77 437.69)"/><ellipse cx="164.77" cy="409.63" rx="21.32" ry="34.79" fill="#cfd6bd" opacity="0.92" transform="rotate(246.24 164.77 437.69)"/><ellipse cx="164.77" cy="409.63" rx="21.32" ry="34.79" fill="#cfd6bd" opacity="0.89" transform="rotate(293.44 164.77 437.69)"/><ellipse cx="164.77" cy="409.63" rx="21.32" ry="34.79" fill="#cfd6bd" opacity="0.97" transform="rotate(344.59 164.77 437.69)"/><ellipse cx="164.77" cy="409.63" rx="21.32" ry="34.79" fill="#cfd6bd" opacity="0.85" transform="rotate(397.29 164.77 437.69)"/><ellipse cx="164.77" cy="409.63" rx="21.32" ry="34.79" fill="#cfd6bd" opacity="0.9" transform="rotate(449.64 164.77 437.69)"/><ellipse cx="164.77" cy="423.66" rx="10.66" ry="17.39" fill="#a7b394" opacity="0.92" transform="rotate(116.1 164.77 437.69)"/><ellipse cx="164.77" cy="423.66" rx="10.66" ry="17.39" fill="#a7b394" opacity="0.84" transform="rotate(169.05 164.77 437.69)"/><ellipse cx="164.77" cy="423.66" rx="10.66" ry="17.39" fill="#a7b394" opacity="0.85" transform="rotate(218.22 164.77 437.69)"/><ellipse cx="164.77" cy="423.66" rx="10.66" ry="17.39" fill="#a7b394" opacity="0.89" transform="rotate(269.8 164.77 437.69)"/><ellipse cx="164.77" cy="423.66" rx="10.66" ry="17.39" fill="#a7b394" opacity="0.93" transform="rotate(320.73 164.77 437.69)"/><ellipse cx="164.77" cy="423.66" rx="10.66" ry="17.39" fill="#a7b394" opacity="0.9" transform="rotate(374.01 164.77 437.69)"/><ellipse cx="164.77" cy="423.66" rx="10.66" ry="17.39" fill="#a7b394" opacity="0.87" transform="rotate(422.2 164.77 437.69)"/><circle cx="164.77" cy="437.69" r="14.31" fill="#f7f4ea"/><circle cx="164.77" cy="437.69" r="8.42" fill="#8b9878" opacity="0.75"/><ellipse cx="400.15" cy="391.58" rx="48.5" ry="79.14" fill="#e8e2d0" opacity="0.91" transform="rotate(211.87 400.15 455.4)"/><ellipse cx="400.15" cy="391.58" rx="48.5" ry="79.14" fill="#e8e2d0" opacity="0.93" transform="rotate(251.91 400.15 455.4)"/><ellipse cx="400.15" cy="391.58" rx="48.5" ry="79.14" fill="#e8e2d0" opacity="0.84" transform="rotate(297.88 400.15 455.4)"/><ellipse cx="400.15" cy="391.58" rx="48.5" ry="79.14" fill="#e8e2d0" opacity="0.91" transform="rotate(341.61 400.15 455.4)"/><ellipse cx="400.15" cy="391.58" rx="48.5" ry="79.14" fill="#e8e2d0" opacity="0.93" transform="rotate(387 400.15 455.4)"/><ellipse cx="400.15" cy="391.58" rx="48.5" ry="79.14" fill="#e8e2d0" opacity="0.87" transform="rotate(434.98 400.15 455.4)"/><ellipse cx="400.15" cy="391.58" rx="48.5" ry="79.14" fill="#e8e2d0" opacity="0.96" transform="rotate(481.17 400.15 455.4)"/><ellipse cx="400.15" cy="391.58" rx="48.5" ry="79.14" fill="#e8e2d0" opacity="0.95" transform="rotate(525.73 400.15 455.4)"/><ellipse cx="400.15" cy="412.85" rx="32.34" ry="52.76" fill="#cfd6bd" opacity="0.92" transform="rotate(188.98 400.15 455.4)"/><ellipse cx="400.15" cy="412.85" rx="32.34" ry="52.76" fill="#cfd6bd" opacity="0.89" transform="rotate(231.11 400.15 455.4)"/><ellipse cx="400.15" cy="412.85" rx="32.34" ry="52.76" fill="#cfd6bd" opacity="0.87" transform="rotate(274.12 400.15 455.4)"/><ellipse cx="400.15" cy="412.85" rx="32.34" ry="52.76" fill="#cfd6bd" opacity="0.94" transform="rotate(322.42 400.15 455.4)"/><ellipse cx="400.15" cy="412.85" rx="32.34" ry="52.76" fill="#cfd6bd" opacity="0.93" transform="rotate(369.76 400.15 455.4)"/><ellipse cx="400.15" cy="412.85" rx="32.34" ry="52.76" fill="#cfd6bd" opacity="0.87" transform="rotate(415.81 400.15 455.4)"/><ellipse cx="400.15" cy="412.85" rx="32.34" ry="52.76" fill="#cfd6bd" opacity="0.92" transform="rotate(460.87 400.15 455.4)"/><ellipse cx="400.15" cy="412.85" rx="32.34" ry="52.76" fill="#cfd6bd" opacity="0.89" transform="rotate(500.82 400.15 455.4)"/><ellipse cx="400.15" cy="434.12" rx="16.17" ry="26.38" fill="#a7b394" opacity="0.93" transform="rotate(162.47 400.15 455.4)"/><ellipse cx="400.15" cy="434.12" rx="16.17" ry="26.38" fill="#a7b394" opacity="0.88" transform="rotate(208.39 400.15 455.4)"/><ellipse cx="400.15" cy="434.12" rx="16.17" ry="26.38" fill="#a7b394" opacity="0.82" transform="rotate(258 400.15 455.4)"/><ellipse cx="400.15" cy="434.12" rx="16.17" ry="26.38" fill="#a7b394" opacity="0.88" transform="rotate(296.55 400.15 455.4)"/><ellipse cx="400.15" cy="434.12" rx="16.17" ry="26.38" fill="#a7b394" opacity="0.89" transform="rotate(344.84 400.15 455.4)"/><ellipse cx="400.15" cy="434.12" rx="16.17" ry="26.38" fill="#a7b394" opacity="0.97" transform="rotate(392.54 400.15 455.4)"/><ellipse cx="400.15" cy="434.12" rx="16.17" ry="26.38" fill="#a7b394" opacity="0.89" transform="rotate(437.5 400.15 455.4)"/><ellipse cx="400.15" cy="434.12" rx="16.17" ry="26.38" fill="#a7b394" opacity="0.91" transform="rotate(479.17 400.15 455.4)"/><circle cx="400.15" cy="455.4" r="21.7" fill="#f7f4ea"/><circle cx="400.15" cy="455.4" r="12.76" fill="#8b9878" opacity="0.75"/><ellipse cx="271.82" cy="431.25" rx="40.37" ry="65.86" fill="#e8e2d0" opacity="0.86" transform="rotate(279.3 271.82 484.36)"/><ellipse cx="271.82" cy="431.25" rx="40.37" ry="65.86" fill="#e8e2d0" opacity="0.93" transform="rotate(335.85 271.82 484.36)"/><ellipse cx="271.82" cy="431.25" rx="40.37" ry="65.86" fill="#e8e2d0" opacity="0.83" transform="rotate(401.18 271.82 484.36)"/><ellipse cx="271.82" cy="431.25" rx="40.37" ry="65.86" fill="#e8e2d0" opacity="0.96" transform="rotate(461.97 271.82 484.36)"/><ellipse cx="271.82" cy="431.25" rx="40.37" ry="65.86" fill="#e8e2d0" opacity="0.93" transform="rotate(521.3 271.82 484.36)"/><ellipse cx="271.82" cy="431.25" rx="40.37" ry="65.86" fill="#e8e2d0" opacity="0.97" transform="rotate(582.36 271.82 484.36)"/><ellipse cx="271.82" cy="448.95" rx="26.91" ry="43.91" fill="#cfd6bd" opacity="0.84" transform="rotate(248.72 271.82 484.36)"/><ellipse cx="271.82" cy="448.95" rx="26.91" ry="43.91" fill="#cfd6bd" opacity="0.83" transform="rotate(309.64 271.82 484.36)"/><ellipse cx="271.82" cy="448.95" rx="26.91" ry="43.91" fill="#cfd6bd" opacity="0.85" transform="rotate(366.11 271.82 484.36)"/><ellipse cx="271.82" cy="448.95" rx="26.91" ry="43.91" fill="#cfd6bd" opacity="0.94" transform="rotate(426.48 271.82 484.36)"/><ellipse cx="271.82" cy="448.95" rx="26.91" ry="43.91" fill="#cfd6bd" opacity="0.85" transform="rotate(490.76 271.82 484.36)"/><ellipse cx="271.82" cy="448.95" rx="26.91" ry="43.91" fill="#cfd6bd" opacity="0.82" transform="rotate(552.42 271.82 484.36)"/><ellipse cx="271.82" cy="466.66" rx="13.46" ry="21.95" fill="#a7b394" opacity="0.83" transform="rotate(219.18 271.82 484.36)"/><ellipse cx="271.82" cy="466.66" rx="13.46" ry="21.95" fill="#a7b394" opacity="0.87" transform="rotate(281.86 271.82 484.36)"/><ellipse cx="271.82" cy="466.66" rx="13.46" ry="21.95" fill="#a7b394" opacity="0.9" transform="rotate(340.26 271.82 484.36)"/><ellipse cx="271.82" cy="466.66" rx="13.46" ry="21.95" fill="#a7b394" opacity="0.85" transform="rotate(396.09 271.82 484.36)"/><ellipse cx="271.82" cy="466.66" rx="13.46" ry="21.95" fill="#a7b394" opacity="0.86" transform="rotate(462.2 271.82 484.36)"/><ellipse cx="271.82" cy="466.66" rx="13.46" ry="21.95" fill="#a7b394" opacity="0.95" transform="rotate(515.1 271.82 484.36)"/><circle cx="271.82" cy="484.36" r="18.06" fill="#f7f4ea"/><circle cx="271.82" cy="484.36" r="10.62" fill="#8b9878" opacity="0.75"/><ellipse cx="508.32" cy="485.86" rx="38.18" ry="62.3" fill="#e8e2d0" opacity="0.88" transform="rotate(348.27 508.32 536.09)"/><ellipse cx="508.32" cy="485.86" rx="38.18" ry="62.3" fill="#e8e2d0" opacity="0.95" transform="rotate(405.84 508.32 536.09)"/><ellipse cx="508.32" cy="485.86" rx="38.18" ry="62.3" fill="#e8e2d0" opacity="0.95" transform="rotate(469.53 508.32 536.09)"/><ellipse cx="508.32" cy="485.86" rx="38.18" ry="62.3" fill="#e8e2d0" opacity="0.89" transform="rotate(528.98 508.32 536.09)"/><ellipse cx="508.32" cy="485.86" rx="38.18" ry="62.3" fill="#e8e2d0" opacity="0.89" transform="rotate(591.42 508.32 536.09)"/><ellipse cx="508.32" cy="485.86" rx="38.18" ry="62.3" fill="#e8e2d0" opacity="0.9" transform="rotate(651.34 508.32 536.09)"/><ellipse cx="508.32" cy="502.6" rx="25.45" ry="41.53" fill="#cfd6bd" opacity="0.9" transform="rotate(320.65 508.32 536.09)"/><ellipse cx="508.32" cy="502.6" rx="25.45" ry="41.53" fill="#cfd6bd" opacity="0.91" transform="rotate(381.9 508.32 536.09)"/><ellipse cx="508.32" cy="502.6" rx="25.45" ry="41.53" fill="#cfd6bd" opacity="0.94" transform="rotate(440.86 508.32 536.09)"/><ellipse cx="508.32" cy="502.6" rx="25.45" ry="41.53" fill="#cfd6bd" opacity="0.98" transform="rotate(496.62 508.32 536.09)"/><ellipse cx="508.32" cy="502.6" rx="25.45" ry="41.53" fill="#cfd6bd" opacity="0.83" transform="rotate(557.63 508.32 536.09)"/><ellipse cx="508.32" cy="502.6" rx="25.45" ry="41.53" fill="#cfd6bd" opacity="0.9" transform="rotate(616.86 508.32 536.09)"/><ellipse cx="508.32" cy="519.35" rx="12.73" ry="20.77" fill="#a7b394" opacity="0.97" transform="rotate(288.32 508.32 536.09)"/><ellipse cx="508.32" cy="519.35" rx="12.73" ry="20.77" fill="#a7b394" opacity="0.92" transform="rotate(351.36 508.32 536.09)"/><ellipse cx="508.32" cy="519.35" rx="12.73" ry="20.77" fill="#a7b394" opacity="0.94" transform="rotate(407.75 508.32 536.09)"/><ellipse cx="508.32" cy="519.35" rx="12.73" ry="20.77" fill="#a7b394" opacity="0.97" transform="rotate(473.33 508.32 536.09)"/><ellipse cx="508.32" cy="519.35" rx="12.73" ry="20.77" fill="#a7b394" opacity="0.87" transform="rotate(531.14 508.32 536.09)"/><ellipse cx="508.32" cy="519.35" rx="12.73" ry="20.77" fill="#a7b394" opacity="0.96" transform="rotate(588 508.32 536.09)"/><circle cx="508.32" cy="536.09" r="17.08" fill="#f7f4ea"/><circle cx="508.32" cy="536.09" r="10.05" fill="#8b9878" opacity="0.75"/><ellipse cx="646.61" cy="501.6" rx="52.46" ry="85.6" fill="#e8e2d0" opacity="0.9" transform="rotate(412.24 646.61 570.63)"/><ellipse cx="646.61" cy="501.6" rx="52.46" ry="85.6" fill="#e8e2d0" opacity="0.94" transform="rotate(455.65 646.61 570.63)"/><ellipse cx="646.61" cy="501.6" rx="52.46" ry="85.6" fill="#e8e2d0" opacity="0.87" transform="rotate(505.4 646.61 570.63)"/><ellipse cx="646.61" cy="501.6" rx="52.46" ry="85.6" fill="#e8e2d0" opacity="0.92" transform="rotate(545.83 646.61 570.63)"/><ellipse cx="646.61" cy="501.6" rx="52.46" ry="85.6" fill="#e8e2d0" opacity="0.87" transform="rotate(589.97 646.61 570.63)"/><ellipse cx="646.61" cy="501.6" rx="52.46" ry="85.6" fill="#e8e2d0" opacity="0.87" transform="rotate(634.59 646.61 570.63)"/><ellipse cx="646.61" cy="501.6" rx="52.46" ry="85.6" fill="#e8e2d0" opacity="0.93" transform="rotate(680.87 646.61 570.63)"/><ellipse cx="646.61" cy="501.6" rx="52.46" ry="85.6" fill="#e8e2d0" opacity="0.9" transform="rotate(729.22 646.61 570.63)"/><ellipse cx="646.61" cy="524.61" rx="34.98" ry="57.07" fill="#cfd6bd" opacity="0.86" transform="rotate(388.56 646.61 570.63)"/><ellipse cx="646.61" cy="524.61" rx="34.98" ry="57.07" fill="#cfd6bd" opacity="0.85" transform="rotate(438.05 646.61 570.63)"/><ellipse cx="646.61" cy="524.61" rx="34.98" ry="57.07" fill="#cfd6bd" opacity="0.83" transform="rotate(482.47 646.61 570.63)"/><ellipse cx="646.61" cy="524.61" rx="34.98" ry="57.07" fill="#cfd6bd" opacity="0.93" transform="rotate(522.23 646.61 570.63)"/><ellipse cx="646.61" cy="524.61" rx="34.98" ry="57.07" fill="#cfd6bd" opacity="0.95" transform="rotate(568.93 646.61 570.63)"/><ellipse cx="646.61" cy="524.61" rx="34.98" ry="57.07" fill="#cfd6bd" opacity="0.83" transform="rotate(613.42 646.61 570.63)"/><ellipse cx="646.61" cy="524.61" rx="34.98" ry="57.07" fill="#cfd6bd" opacity="0.92" transform="rotate(661.53 646.61 570.63)"/><ellipse cx="646.61" cy="524.61" rx="34.98" ry="57.07" fill="#cfd6bd" opacity="0.87" transform="rotate(708.97 646.61 570.63)"/><ellipse cx="646.61" cy="547.62" rx="17.49" ry="28.53" fill="#a7b394" opacity="0.88" transform="rotate(366.7 646.61 570.63)"/><ellipse cx="646.61" cy="547.62" rx="17.49" ry="28.53" fill="#a7b394" opacity="0.91" transform="rotate(411.62 646.61 570.63)"/><ellipse cx="646.61" cy="547.62" rx="17.49" ry="28.53" fill="#a7b394" opacity="0.93" transform="rotate(460.7 646.61 570.63)"/><ellipse cx="646.61" cy="547.62" rx="17.49" ry="28.53" fill="#a7b394" opacity="0.94" transform="rotate(502.45 646.61 570.63)"/><ellipse cx="646.61" cy="547.62" rx="17.49" ry="28.53" fill="#a7b394" opacity="0.88" transform="rotate(544.64 646.61 570.63)"/><ellipse cx="646.61" cy="547.62" rx="17.49" ry="28.53" fill="#a7b394" opacity="0.89" transform="rotate(595.08 646.61 570.63)"/><ellipse cx="646.61" cy="547.62" rx="17.49" ry="28.53" fill="#a7b394" opacity="0.97" transform="rotate(634.4 646.61 570.63)"/><ellipse cx="646.61" cy="547.62" rx="17.49" ry="28.53" fill="#a7b394" opacity="0.97" transform="rotate(683.63 646.61 570.63)"/><circle cx="646.61" cy="570.63" r="23.47" fill="#f7f4ea"/><circle cx="646.61" cy="570.63" r="13.81" fill="#8b9878" opacity="0.75"/>
</svg>