<svg xmlns="http://www.w3.org/2000/svg" viewBox="0 0 800 1000" width="800" height="1000" role="img" aria-hidden="true">
  <defs>
    <linearGradient id="bgg76212" x1="0" y1="0" x2="0.35" y2="1">
      <stop offset="0" stop-color="#fbf4f2"/>
      <stop offset="1" stop-color="#f2e2dc"/>
    </linearGradient>
    <radialGradient id="glowg76212" cx="0.5" cy="0.38" r="0.62">
      <stop offset="0" stop-color="#ffffff" stop-opacity="0.55"/>
      <stop offset="1" stop-color="#ffffff" stop-opacity="0"/>
    </radialGradient>
  </defs>
  <rect width="800" height="1000" fill="url(#bgg76212)"/>
  <rect width="800" height="1000" fill="url(#glowg76212)"/>
  <path d="M 381.66 1020 Q 162.24 738.07 58.98 456.14" fill="none" stroke="#6f7d5c" stroke-width="8.8" stroke-linecap="round" opacity="0.55"/><path d="M 381.66 1020 Q 300.16 803.17 261.8 586.34" fill="none" stroke="#6f7d5c" stroke-width="8.8" stroke-linecap="round" opacity="0.55"/><path d="M 381.66 1020 Q 381.66 734.7 381.66 449.39" fill="none" stroke="#6f7d5c" stroke-width="8.8" stroke-linecap="round" opacity="0.55"/><path d="M 381.66 1020 Q 494.16 695.65 547.1 371.29" fill="none" stroke="#6f7d5c" stroke-width="8.8" stroke-linecap="round" opacity="0.55"/><path d="M 381.66 1020 Q 533.18 813.04 604.49 606.09" fill="none" stroke="#6f7d5c" stroke-width="8.8" stroke-linecap="round" opacity="0.55"/><ellipse cx="477.88" cy="547.52" rx="46.66" ry="127.7" fill="#8b9878" opacity="0.78" transform="rotate(-77.78 477.88 670.31)"/><ellipse cx="86.24" cy="512.02" rx="37.19" ry="101.79" fill="#8b9878" opacity="0.86" transform="rotate(-77.74 86.24 609.89)"/><ellipse cx="202.11" cy="540.85" rx="43.22" ry="118.28" fill="#8b9878" opacity="0.75" transform="rotate(68.08 202.11 654.58)"/><ellipse cx="245.2" cy="657.35" rx="41.2" ry="112.76" fill="#6f7d5c" opacity="0.85" transform="rotate(-29.98 245.2 765.77)"/><ellipse cx="237.03" cy="706.12" rx="51.31" ry="140.42" fill="#6f7d5c" opacity="0.68" transform="rotate(-41.39 237.03 841.13)"/><ellipse cx="204.19" cy="692.16" rx="41.46" ry="113.46" fill="#a7b394" opacity="0.9" transform="rotate(-93.75 204.19 801.26)"/><ellipse cx="315.74" cy="746.66" rx="39.94" ry="109.31" fill="#6f7d5c" opacity="0.72" transform="rotate(-46.87 315.74 851.77)"/><ellipse cx="381.66" cy="730.59" rx="25.86" ry="70.78" fill="#a7b394" opacity="0.69" transform="rotate(0 381.66 798.64)"/><ellipse cx="472.65" cy="667.15" rx="38.45" ry="105.24" fill="#6f7d5c" opacity="0.75" transform="rotate(46.88 472.65 768.35)"/><ellipse cx="504.22" cy="779.27" rx="30.46" ry="83.37" fill="#8b9878" opacity="0.85" transform="rotate(93.75 504.22 859.43)"/><ellipse cx="547.1" cy="305.75" rx="49.82" ry="81.28" fill="#eecdc3" opacity="0.85" transform="rotate(311.79 547.1 371.29)"/><ellipse cx="547.1" cy="305.75" rx="49.82" ry="81.28" fill="#eecdc3" opacity="0.83" transform="rotate(358.21 547.1 371.29)"/><ellipse cx="547.1" cy="305.75" rx="49.82" ry="81.28" fill="#eecdc3" opacity="0.97" transform="rotate(404.15 547.1 371.29)"/><ellipse cx="547.1" cy="305.75" rx="49.82" ry="81.28" fill="#eecdc3" opacity="0.84" transform="rotate(445.91 547.1 371.29)"/><ellipse cx="547.1" cy="305.75" rx="49.82" ry="81.28" fill="#eecdc3" opacity="0.92" transform="rotate(492.12 547.1 371.29)"/><ellipse cx="547.1" cy="305.75" rx="49.82" ry="81.28" fill="#eecdc3" opacity="0.86" transform="rotate(539.23 547.1 371.29)"/><ellipse cx="547.1" cy="305.75" rx="49.82" ry="81.28" fill="#eecdc3" opacity="0.84" transform="rotate(584.8 547.1 371.29)"/><ellipse cx="547.1" cy="305.75" rx="49.82" ry="81.28" fill="#eecdc3" opacity="0.95" transform="rotate(629.78 547.1 371.29)"/><ellipse cx="547.1" cy="327.6" rx="33.21" ry="54.19" fill="#dfb1a4" opacity="0.97" transform="rotate(291.09 547.1 371.29)"/><ellipse cx="547.1" cy="327.6" rx="33.21" ry="54.19" fill="#dfb1a4" opacity="0.83" transform="rotate(335.38 547.1 371.29)"/><ellipse cx="547.1" cy="327.6" rx="33.21" ry="54.19" fill="#dfb1a4" opacity="0.94" transform="rotate(384.18 547.1 371.29)"/><ellipse cx="547.1" cy="327.6" rx="33.21" ry="54.19" fill="#dfb1a4" opacity="0.96" transform="rotate(423.29 547.1 371.29)"/><ellipse cx="547.1" cy="327.6" rx="33.21" ry="54.19" fill="#dfb1a4" opacity="0.97" transform="rotate(470.15 547.1 371.29)"/><ellipse cx="547.1" cy="327.6" rx="33.21" ry="54.19" fill="#dfb1a4" opacity="0.89" transform="rotate(517.64 547.1 371.29)"/><ellipse cx="547.1" cy="327.6" rx="33.21" ry="54.19" fill="#dfb1a4" opacity="0.95" transform="rotate(561.53 547.1 371.29)"/><ellipse cx="547.1" cy="327.6" rx="33.21" ry="54.19" fill="#dfb1a4" opacity="0.88" transform="rotate(602.46 547.1 371.29)"/><ellipse cx="547.1" cy="349.44" rx="16.61" ry="27.09" fill="#cd9f92" opacity="0.85" transform="rotate(267.85 547.1 371.29)"/><ellipse cx="547.1" cy="349.44" rx="16.61" ry="27.09" fill="#cd9f92" opacity="0.92" transform="rotate(312.79 547.1 371.29)"/><ellipse cx="547.1" cy="349.44" rx="16.61" ry="27.09" fill="#cd9f92" opacity="0.83" transform="rotate(361.48 547.1 371.29)"/><ellipse cx="547.1" cy="349.44" rx="16.61" ry="27.09" fill="#cd9f92" opacity="0.9" transform="rotate(400.94 547.1 371.29)"/><ellipse cx="547.1" cy="349.44" rx="16.61" ry="27.09" fill="#cd9f92" opacity="0.96" transform="rotate(445.69 547.1 371.29)"/><ellipse cx="547.1" cy="349.44" rx="16.61" ry="27.09" fill="#cd9f92" opacity="0.96" transform="rotate(491.48 547.1 371.29)"/><ellipse cx="547.1" cy="349.44" rx="16.61" ry="27.09" fill="#cd9f92" opacity="0.84" transform="rotate(540.6 547.1 371.29)"/><ellipse cx="547.1" cy="349.44" rx="16.61" ry="27.09" fill="#cd9f92" opacity="0.91" transform="rotate(580.66 547.1 371.29)"/><circle cx="547.1" cy="371.29" r="22.29" fill="#f7e3dd"/><circle cx="547.1" cy="371.29" r="13.11" fill="#b49157" opacity="0.75"/><ellipse cx="381.66" cy="389.98" rx="45.15" ry="73.67" fill="#eecdc3" opacity="0.9" transform="rotate(296.72 381.66 449.39)"/><ellipse cx="381.66" cy="389.98" rx="45.15" ry="73.67" fill="#eecdc3" opacity="0.87" transform="rotate(370.48 381.66 449.39)"/><ellipse cx="381.66" cy="389.98" rx="45.15" ry="73.67" fill="#eecdc3" opacity="0.97" transform="rotate(440.08 381.66 449.39)"/><ellipse cx="381.66" cy="389.98" rx="45.15" ry="73.67" fill="#eecdc3" opacity="0.86" transform="rotate(512.89 381.66 449.39)"/><ellipse cx="381.66" cy="389.98" rx="45.15" ry="73.67" fill="#eecdc3" opacity="0.95" transform="rotate(590.45 381.66 449.39)"/><ellipse cx="381.66" cy="409.78" rx="30.1" ry="49.12" fill="#dfb1a4" opacity="0.92" transform="rotate(262.09 381.66 449.39)"/><ellipse cx="381.66" cy="409.78" rx="30.1" ry="49.12" fill="#dfb1a4" opacity="0.88" transform="rotate(332.35 381.66 449.39)"/><ellipse cx="381.66" cy="409.78" rx="30.1" ry="49.12" fill="#dfb1a4" opacity="0.91" transform="rotate(407.79 381.66 449.39)"/><ellipse cx="381.66" cy="409.78" rx="30.1" ry="49.12" fill="#dfb1a4" opacity="0.84" transform="rotate(482.48 381.66 449.39)"/><ellipse cx="381.66" cy="409.78" rx="30.1" ry="49.12" fill="#dfb1a4" opacity="0.86" transform="rotate(552.34 381.66 449.39)"/><ellipse cx="381.66" cy="429.59" rx="15.05" ry="24.56" fill="#cd9f92" opacity="0.86" transform="rotate(225.99 381.66 449.39)"/><ellipse cx="381.66" cy="429.59" rx="15.05" ry="24.56" fill="#cd9f92" opacity="0.96" transform="rotate(297.9 381.66 449.39)"/><ellipse cx="381.66" cy="429.59" rx="15.05" ry="24.56" fill="#cd9f92" opacity="0.93" transform="rotate(374.7 381.66 449.39)"/><ellipse cx="381.66" cy="429.59" rx="15.05" ry="24.56" fill="#cd9f92" opacity="0.9" transform="rotate(444.58 381.66 449.39)"/><ellipse cx="381.66" cy="429.59" rx="15.05" ry="24.56" fill="#cd9f92" opacity="0.93" transform="rotate(514.6 381.66 449.39)"/><circle cx="381.66" cy="449.39" r="20.2" fill="#f7e3dd"/><circle cx="381.66" cy="449.39" r="11.88" fill="#b49157" opacity="0.75"/><ellipse cx="58.98" cy="407.05" rx="37.31" ry="60.87" fill="#eecdc3" opacity="0.88" transform="rotate(196.88 58.98 456.14)"/><ellipse cx="58.98" cy="407.05" rx="37.31" ry="60.87" fill="#eecdc3" opacity="0.85" transform="rotate(267.54 58.98 456.14)"/><ellipse cx="58.98" cy="407.05" rx="37.31" ry="60.87" fill="#eecdc3" opacity="0.87" transform="rotate(334.72 58.98 456.14)"/><ellipse cx="58.98" cy="407.05" rx="37.31" ry="60.87" fill="#eecdc3" opacity="0.87" transform="rotate(413.55 58.98 456.14)"/><ellipse cx="58.98" cy="407.05" rx="37.31" ry="60.87" fill="#eecdc3" opacity="0.86" transform="rotate(482.24 58.98 456.14)"/><ellipse cx="58.98" cy="423.41" rx="24.87" ry="40.58" fill="#dfb1a4" opacity="0.83" transform="rotate(161.65 58.98 456.14)"/><ellipse cx="58.98" cy="423.41" rx="24.87" ry="40.58" fill="#dfb1a4" opacity="0.95" transform="rotate(234.09 58.98 456.14)"/><ellipse cx="58.98" cy="423.41" rx="24.87" ry="40.58" fill="#dfb1a4" opacity="0.86" transform="rotate(298.83 58.98 456.14)"/><ellipse cx="58.98" cy="423.41" rx="24.87" ry="40.58" fill="#dfb1a4" opacity="0.83" transform="rotate(373.13 58.98 456.14)"/><ellipse cx="58.98" cy="423.41" rx="24.87" ry="40.58" fill="#dfb1a4" opacity="0.94" transform="rotate(448.95 58.98 456.14)"/><ellipse cx="58.98" cy="439.78" rx="12.44" ry="20.29" fill="#cd9f92" opacity="0.92" transform="rotate(125.45 58.98 456.14)"/><ellipse cx="58.98" cy="439.78" rx="12.44" ry="20.29" fill="#cd9f92" opacity="0.91" transform="rotate(193.5 58.98 456.14)"/><ellipse cx="58.98" cy="439.78" rx="12.44" ry="20.29" fill="#cd9f92" opacity="0.96" transform="rotate(268.33 58.98 456.14)"/><ellipse cx="58.98" cy="439.78" rx="12.44" ry="20.29" fill="#cd9f92" opacity="0.91" transform="rotate(338.51 58.98 456.14)"/><ellipse cx="58.98" cy="439.78" rx="12.44" ry="20.29" fill="#cd9f92" opacity="0.84" transform="rotate(410.07 58.98 456.14)"/><circle cx="58.98" cy="456.14" r="16.69" fill="#f7e3dd"/><circle cx="58.98" cy="456.14" r="9.82" fill="#b49157" opacity="0.75"/><ellipse cx="261.8" cy="534.18" rx="39.64" ry="64.68" fill="#eecdc3" opacity="0.95" transform="rotate(374.7 261.8 586.34)"/><ellipse cx="261.8" cy="534.18" rx="39.64" ry="64.68" fill="#eecdc3" opacity="0.98" transform="rotate(416.67 261.8 586.34)"/><ellipse cx="261.8" cy="534.18" rx="39.64" ry="64.68" fill="#eecdc3" opacity="0.82" transform="rotate(459.54 261.8 586.34)"/><ellipse cx="261.8" cy="534.18" rx="39.64" ry="64.68" fill="#eecdc3" opacity="0.87" transform="rotate(504.86 261.8 586.34)"/><ellipse cx="261.8" cy="534.18" rx="39.64" ry="64.68" fill="#eecdc3" opacity="0.85" transform="rotate(554.1 261.8 586.34)"/><ellipse cx="261.8" cy="534.18" rx="39.64" ry="64.68" fill="#eecdc3" opacity="0.89" transform="rotate(600.86 261.8 586.34)"/><ellipse cx="261.8" cy="534.18" rx="39.64" ry="64.68" fill="#eecdc3" opacity="0.88" transform="rotate(641.39 261.8 586.34)"/><ellipse cx="261.8" cy="534.18" rx="39.64" ry="64.68" fill="#eecdc3" opacity="0.93" transform="rotate(685.53 261.8 586.34)"/><ellipse cx="261.8" cy="551.56" rx="26.43" ry="43.12" fill="#dfb1a4" opacity="0.96" transform="rotate(348.59 261.8 586.34)"/><ellipse cx="261.8" cy="551.56" rx="26.43" ry="43.12" fill="#dfb1a4" opacity="0.88" transform="rotate(393.36 261.8 586.34)"/><ellipse cx="261.8" cy="551.56" rx="26.43" ry="43.12" fill="#dfb1a4" opacity="0.86" transform="rotate(440.89 261.8 586.34)"/><ellipse cx="261.8" cy="551.56" rx="26.43" ry="43.12" fill="#dfb1a4" opacity="0.89" transform="rotate(483.16 261.8 586.34)"/><ellipse cx="261.8" cy="551.56" rx="26.43" ry="43.12" fill="#dfb1a4" opacity="0.87" transform="rotate(532.2 261.8 586.34)"/><ellipse cx="261.8" cy="551.56" rx="26.43" ry="43.12" fill="#dfb1a4" opacity="0.84" transform="rotate(576.66 261.8 586.34)"/><ellipse cx="261.8" cy="551.56" rx="26.43" ry="43.12" fill="#dfb1a4" opacity="0.83" transform="rotate(618.75 261.8 586.34)"/><ellipse cx="261.8" cy="551.56" rx="26.43" ry="43.12" fill="#dfb1a4" opacity="0.97" transform="rotate(667.83 261.8 586.34)"/><ellipse cx="261.8" cy="568.95" rx="13.21" ry="21.56" fill="#cd9f92" opacity="0.93" transform="rotate(331.41 261.8 586.34)"/><ellipse cx="261.8" cy="568.95" rx="13.21" ry="21.56" fill="#cd9f92" opacity="0.9" transform="rotate(373.48 261.8 586.34)"/><ellipse cx="261.8" cy="568.95" rx="13.21" ry="21.56" fill="#cd9f92" opacity="0.98" transform="rotate(418.21 261.8 586.34)"/><ellipse cx="261.8" cy="568.95" rx="13.21" ry="21.56" fill="#cd9f92" opacity="0.92" transform="rotate(460.15 261.8 586.34)"/><ellipse cx="261.8" cy="568.95" rx="13.21" ry="21.56" fill="#cd9f92" opacity="0.9" transform="rotate(504.68 261.8 586.34)"/><ellipse cx="261.8" cy="568.95" rx="13.21" ry="21.56" fill="#cd9f92" opacity="0.84" transform="rotate(553 261.8 586.34)"/><ellipse cx="261.8" cy="568.95" rx="13.21" ry="21.56" fill="#cd9f92" opacity="0.9" transform="rotate(594.35 261.8 586.34)"/><ellipse cx="261.8" cy="568.95" rx="13.21" ry="21.56" fill="#cd9f92" opacity="0.98" transform="rotate(641.97 261.8 586.34)"/><circle cx="261.8" cy="586.34" r="17.74" fill="#f7e3dd"/><circle cx="261.8" cy="586.34" r="10.43" fill="#b49157" opacity="0.75"/><ellipse cx="604.49" cy="559.11" rx="35.71" ry="58.26" fill="#eecdc3" opacity="0.94" transform="rotate(145.93 604.49 606.09)"/><ellipse cx="604.49" cy="559.11" rx="35.71" ry="58.26" fill="#eecdc3" opacity="0.86" transform="rotate(217.37 604.49 606.09)"/><ellipse cx="604.49" cy="559.11" rx="35.71" ry="58.26" fill="#eecdc3" opacity="0.91" transform="rotate(295.78 604.49 606.09)"/><ellipse cx="604.49" cy="559.11" rx="35.71" ry="58.26" fill="#eecdc3" opacity="0.98" transform="rotate(361.66 604.49 606.09)"/><ellipse cx="604.49" cy="559.11" rx="35.71" ry="58.26" fill="#eecdc3" opacity="0.86" transform="rotate(439.65 604.49 606.09)"/><ellipse cx="604.49" cy="574.77" rx="23.8" ry="38.84" fill="#dfb1a4" opacity="0.86" transform="rotate(116.18 604.49 606.09)"/><ellipse cx="604.49" cy="574.77" rx="23.8" ry="38.84" fill="#dfb1a4" opacity="0.86" transform="rotate(184.23 604.49 606.09)"/><ellipse cx="604.49" cy="574.77" rx="23.8" ry="38.84" fill="#dfb1a4" opacity="0.86" transform="rotate(257.15 604.49 606.09)"/><ellipse cx="604.49" cy="574.77" rx="23.8" ry="38.84" fill="#dfb1a4" opacity="0.96" transform="rotate(332.06 604.49 606.09)"/><ellipse cx="604.49" cy="574.77" rx="23.8" ry="38.84" fill="#dfb1a4" opacity="0.94" transform="rotate(403.56 604.49 606.09)"/><ellipse cx="604.49" cy="590.43" rx="11.9" ry="19.42" fill="#cd9f92" opacity="0.94" transform="rotate(76.15 604.49 606.09)"/><ellipse cx="604.49" cy="590.43" rx="11.9" ry="19.42" fill="#cd9f92" opacity="0.95" transform="rotate(145.48 604.49 606.09)"/><ellipse cx="604.49" cy="590.43" rx="11.9" ry="19.42" fill="#cd9f92" opacity="0.86" transform="rotate(220.64 604.49 606.09)"/><ellipse cx="604.49" cy="590.43" rx="11.9" ry="19.42" fill="#cd9f92" opacity="0.86" transform="rotate(289.54 604.49 606.09)"/><ellipse cx="604.49" cy="590.43" rx="11.9" ry="19.42" fill="#cd9f92" opacity="0.83" transform="rotate(361.27 604.49 606.09)"/><circle cx="604.49" cy="606.09" r="15.97" fill="#f7e3dd"/><circle cx="604.49" cy="606.09" r="9.4" fill="#b49157" opacity="0.75"/>
</svg>