<svg xmlns="http://www.w3.org/2000/svg" viewBox="0 0 800 1000" width="800" height="1000" role="img" aria-hidden="true">
  <defs>
    <linearGradient id="bgg84661" x1="0" y1="0" x2="0.35" y2="1">
      <stop offset="0" stop-color="#fbf4f2"/>
      <stop offset="1" stop-color="#f2e2dc"/>
    </linearGradient>
    <radialGradient id="glowg84661" cx="0.5" cy="0.38" r="0.62">
      <stop offset="0" stop-color="#ffffff" stop-opacity="0.55"/>
      <stop offset="1" stop-color="#ffffff" stop-opacity="0"/>
    </radialGradient>
  </defs>
  <rect width="800" height="1000" fill="url(#bgg84661)"/>
  <rect width="800" height="1000" fill="url(#glowg84661)"/>
  <path d="M 413.86 1020 Q 208.95 779.89 112.52 539.78" fill="none" stroke="#6f7d5c" stroke-width="8.8" stroke-linecap="round" opacity="0.55"/><path d="M 413.86 1020 Q 326.7 735.77 285.69 451.54" fill="none" stroke="#6f7d5c" stroke-width="8.8" stroke-linecap="round" opacity="0.55"/><path d="M 413.86 1020 Q 413.86 749.82 413.86 479.64" fill="none" stroke="#6f7d5c" stroke-width="8.8" stroke-linecap="round" opacity="0.55"/><path d="M 413.86 1020 Q 501.37 747.73 542.55 475.47" fill="none" stroke="#6f7d5c" stroke-width="8.8" stroke-linecap="round" opacity="0.55"/><path d="M 413.86 1020 Q 615.09 778.18 709.78 536.37" fill="none" stroke="#6f7d5c" stroke-width="8.8" stroke-linecap="round" opacity="0.55"/><ellipse cx="213.79" cy="575.79" rx="44.36" ry="121.4" fill="#a7b394" opacity="0.8" transform="rotate(-26.22 213.79 692.53)"/><ellipse cx="388.96" cy="495.84" rx="55.04" ry="150.64" fill="#8b9878" opacity="0.63" transform="rotate(30.99 388.96 640.68)"/><ellipse cx="179.98" cy="481.85" rx="56.15" ry="153.67" fill="#a7b394" opacity="0.81" transform="rotate(80.87 179.98 629.61)"/><ellipse cx="188.24" cy="708.42" rx="56.5" ry="154.63" fill="#a7b394" opacity="0.69" transform="rotate(-29 188.24 857.11)"/><ellipse cx="610.8" cy="542.51" rx="32.15" ry="88" fill="#a7b394" opacity="0.76" transform="rotate(53.85 610.8 627.12)"/><ellipse cx="248.12" cy="729.5" rx="39.6" ry="108.37" fill="#6f7d5c" opacity="0.8" transform="rotate(-93.75 248.12 833.71)"/><ellipse cx="343.36" cy="713.09" rx="32.83" ry="89.84" fill="#8b9878" opacity="0.76" transform="rotate(-46.87 343.36 799.48)"/><ellipse cx="413.86" cy="742.15" rx="25.92" ry="70.95" fill="#6f7d5c" opacity="0.82" transform="rotate(0 413.86 810.38)"/><ellipse cx="484.64" cy="736.83" rx="27.33" ry="74.8" fill="#6f7d5c" opacity="0.83" transform="rotate(46.88 484.64 808.76)"/><ellipse cx="576.62" cy="739.67" rx="35.23" ry="96.42" fill="#a7b394" opacity="0.73" transform="rotate(93.75 576.62 832.38)"/><ellipse cx="285.69" cy="407.97" rx="33.11" ry="54.02" fill="#eecdc3" opacity="0.87" transform="rotate(316.2 285.69 451.54)"/><ellipse cx="285.69" cy="407.97" rx="33.11" ry="54.02" fill="#eecdc3" opacity="0.88" transform="rotate(369.66 285.69 451.54)"/><ellipse cx="285.69" cy="407.97" rx="33.11" ry="54.02" fill="#eecdc3" opacity="0.97" transform="rotate(421.32 285.69 451.54)"/><ellipse cx="285.69" cy="407.97" rx="33.11" ry="54.02" fill="#eecdc3" opacity="0.91" transform="rotate(471.62 285.69 451.54)"/><ellipse cx="285.69" cy="407.97" rx="33.11" ry="54.02" fill="#eecdc3" opacity="0.86" transform="rotate(525.92 285.69 451.54)"/><ellipse cx="285.69" cy="407.97" rx="33.11" ry="54.02" fill="#eecdc3" opacity="0.95" transform="rotate(572.34 285.69 451.54)"/><ellipse cx="285.69" cy="407.97" rx="33.11" ry="54.02" fill="#eecdc3" opacity="0.96" transform="rotate(622.43 285.69 451.54)"/><ellipse cx="285.69" cy="422.49" rx="22.07" ry="36.02" fill="#dfb1a4" opacity="0.91" transform="rotate(288.21 285.69 451.54)"/><ellipse cx="285.69" cy="422.49" rx="22.07" ry="36.02" fill="#dfb1a4" opacity="0.96" transform="rotate(344.18 285.69 451.54)"/><ellipse cx="285.69" cy="422.49" rx="22.07" ry="36.02" fill="#dfb1a4" opacity="0.97" transform="rotate(392.01 285.69 451.54)"/><ellipse cx="285.69" cy="422.49" rx="22.07" ry="36.02" fill="#dfb1a4" opacity="0.82" transform="rotate(443.97 285.69 451.54)"/><ellipse cx="285.69" cy="422.49" rx="22.07" ry="36.02" fill="#dfb1a4" opacity="0.86" transform="rotate(498.38 285.69 451.54)"/><ellipse cx="285.69" cy="422.49" rx="22.07" ry="36.02" fill="#dfb1a4" opacity="0.98" transform="rotate(549.96 285.69 451.54)"/><ellipse cx="285.69" cy="422.49" rx="22.07" ry="36.02" fill="#dfb1a4" opacity="0.85" transform="rotate(599.6 285.69 451.54)"/><ellipse cx="285.69" cy="437.01" rx="11.04" ry="18.01" fill="#cd9f92" opacity="0.84" transform="rotate(267.59 285.69 451.54)"/><ellipse cx="285.69" cy="437.01" rx="11.04" ry="18.01" fill="#cd9f92" opacity="0.96" transform="rotate(313.32 285.69 451.54)"/><ellipse cx="285.69" cy="437.01" rx="11.04" ry="18.01" fill="#cd9f92" opacity="0.86" transform="rotate(364.44 285.69 451.54)"/><ellipse cx="285.69" cy="437.01" rx="11.04" ry="18.01" fill="#cd9f92" opacity="0.93" transform="rotate(422.52 285.69 451.54)"/><ellipse cx="285.69" cy="437.01" rx="11.04" ry="18.01" fill="#cd9f92" opacity="0.89" transform="rotate(473.13 285.69 451.54)"/><ellipse cx="285.69" cy="437.01" rx="11.04" ry="18.01" fill="#cd9f92" opacity="0.88" transform="rotate(520.44 285.69 451.54)"/><ellipse cx="285.69" cy="437.01" rx="11.04" ry="18.01" fill="#cd9f92" opacity="0.88" transform="rotate(570.36 285.69 451.54)"/><circle cx="285.69" cy="451.54" r="14.81" fill="#f7e3dd"/><circle cx="285.69" cy="451.54" r="8.71" fill="#b49157" opacity="0.75"/><ellipse cx="542.55" cy="433.07" rx="32.22" ry="52.57" fill="#eecdc3" opacity="0.92" transform="rotate(119.86 542.55 475.47)"/><ellipse cx="542.55" cy="433.07" rx="32.22" ry="52.57" fill="#eecdc3" opacity="0.86" transform="rotate(182.02 542.55 475.47)"/><ellipse cx="542.55" cy="433.07" rx="32.22" ry="52.57" fill="#eecdc3" opacity="0.92" transform="rotate(239.88 542.55 475.47)"/><ellipse cx="542.55" cy="433.07" rx="32.22" ry="52.57" fill="#eecdc3" opacity="0.97" transform="rotate(301.04 542.55 475.47)"/><ellipse cx="542.55" cy="433.07" rx="32.22" ry="52.57" fill="#eecdc3" opacity="0.91" transform="rotate(366.03 542.55 475.47)"/><ellipse cx="542.55" cy="433.07" rx="32.22" ry="52.57" fill="#eecdc3" opacity="0.82" transform="rotate(425.06 542.55 475.47)"/><ellipse cx="542.55" cy="447.2" rx="21.48" ry="35.05" fill="#dfb1a4" opacity="0.96" transform="rotate(91.88 542.55 475.47)"/><ellipse cx="542.55" cy="447.2" rx="21.48" ry="35.05" fill="#dfb1a4" opacity="0.93" transform="rotate(152.97 542.55 475.47)"/><ellipse cx="542.55" cy="447.2" rx="21.48" ry="35.05" fill="#dfb1a4" opacity="0.83" transform="rotate(210.76 542.55 475.47)"/><ellipse cx="542.55" cy="447.2" rx="21.48" ry="35.05" fill="#dfb1a4" opacity="0.98" transform="rotate(277.41 542.55 475.47)"/><ellipse cx="542.55" cy="447.2" rx="21.48" ry="35.05" fill="#dfb1a4" opacity="0.85" transform="rotate(330.26 542.55 475.47)"/><ellipse cx="542.55" cy="447.2" rx="21.48" ry="35.05" fill="#dfb1a4" opacity="0.83" transform="rotate(397.52 542.55 475.47)"/><ellipse cx="542.55" cy="461.33" rx="10.74" ry="17.52" fill="#cd9f92" opacity="0.92" transform="rotate(60.13 542.55 475.47)"/><ellipse cx="542.55" cy="461.33" rx="10.74" ry="17.52" fill="#cd9f92" opacity="0.92" transform="rotate(122.61 542.55 475.47)"/><ellipse cx="542.55" cy="461.33" rx="10.74" ry="17.52" fill="#cd9f92" opacity="0.89" transform="rotate(186.25 542.55 475.47)"/><ellipse cx="542.55" cy="461.33" rx="10.74" ry="17.52" fill="#cd9f92" opacity="0.96" transform="rotate(239.78 542.55 475.47)"/><ellipse cx="542.55" cy="461.33" rx="10.74" ry="17.52" fill="#cd9f92" opacity="0.93" transform="rotate(305.54 542.55 475.47)"/><ellipse cx="542.55" cy="461.33" rx="10.74" ry="17.52" fill="#cd9f92" opacity="0.91" transform="rotate(367.24 542.55 475.47)"/><circle cx="542.55" cy="475.47" r="14.42" fill="#f7e3dd"/><circle cx="542.55" cy="475.47" r="8.48" fill="#b49157" opacity="0.75"/><ellipse cx="413.86" cy="432.42" rx="35.89" ry="58.55" fill="#eecdc3" opacity="0.92" transform="rotate(241.17 413.86 479.64)"/><ellipse cx="413.86" cy="432.42" rx="35.89" ry="58.55" fill="#eecdc3" opacity="0.87" transform="rotate(295.41 413.86 479.64)"/><ellipse cx="413.86" cy="432.42" rx="35.89" ry="58.55" fill="#eecdc3" opacity="0.97" transform="rotate(356.26 413.86 479.64)"/><ellipse cx="413.86" cy="432.42" rx="35.89" ry="58.55" fill="#eecdc3" opacity="0.96" transform="rotate(416.84 413.86 479.64)"/><ellipse cx="413.86" cy="432.42" rx="35.89" ry="58.55" fill="#eecdc3" opacity="0.93" transform="rotate(476.22 413.86 479.64)"/><ellipse cx="413.86" cy="432.42" rx="35.89" ry="58.55" fill="#eecdc3" opacity="0.87" transform="rotate(541.95 413.86 479.64)"/><ellipse cx="413.86" cy="448.16" rx="23.92" ry="39.04" fill="#dfb1a4" opacity="0.97" transform="rotate(212.08 413.86 479.64)"/><ellipse cx="413.86" cy="448.16" rx="23.92" ry="39.04" fill="#dfb1a4" opacity="0.94" transform="rotate(270.09 413.86 479.64)"/><ellipse cx="413.86" cy="448.16" rx="23.92" ry="39.04" fill="#dfb1a4" opacity="0.93" transform="rotate(330.11 413.86 479.64)"/><ellipse cx="413.86" cy="448.16" rx="23.92" ry="39.04" fill="#dfb1a4" opacity="0.96" transform="rotate(390 413.86 479.64)"/><ellipse cx="413.86" cy="448.16" rx="23.92" ry="39.04" fill="#dfb1a4" opacity="0.96" transform="rotate(448.43 413.86 479.64)"/><ellipse cx="413.86" cy="448.16" rx="23.92" ry="39.04" fill="#dfb1a4" opacity="0.95" transform="rotate(512.15 413.86 479.64)"/><ellipse cx="413.86" cy="463.9" rx="11.96" ry="19.52" fill="#cd9f92" opacity="0.95" transform="rotate(181.3 413.86 479.64)"/><ellipse cx="413.86" cy="463.9" rx="11.96" ry="19.52" fill="#cd9f92" opacity="0.96" transform="rotate(242.47 413.86 479.64)"/><ellipse cx="413.86" cy="463.9" rx="11.96" ry="19.52" fill="#cd9f92" opacity="0.93" transform="rotate(300.58 413.86 479.64)"/><ellipse cx="413.86" cy="463.9" rx="11.96" ry="19.52" fill="#cd9f92" opacity="0.96" transform="rotate(360.01 413.86 479.64)"/><ellipse cx="413.86" cy="463.9" rx="11.96" ry="19.52" fill="#cd9f92" opacity="0.91" transform="rotate(419.33 413.86 479.64)"/><ellipse cx="413.86" cy="463.9" rx="11.96" ry="19.52" fill="#cd9f92" opacity="0.98" transform="rotate(475.45 413.86 479.64)"/><circle cx="413.86" cy="479.64" r="16.05" fill="#f7e3dd"/><circle cx="413.86" cy="479.64" r="9.44" fill="#b49157" opacity="0.75"/><ellipse cx="709.78" cy="465.77" rx="53.66" ry="87.54" fill="#eecdc3" opacity="0.83" transform="rotate(296.47 709.78 536.37)"/><ellipse cx="709.78" cy="465.77" rx="53.66" ry="87.54" fill="#eecdc3" opacity="0.9" transform="rotate(351.04 709.78 536.37)"/><ellipse cx="709.78" cy="465.77" rx="53.66" ry="87.54" fill="#eecdc3" opacity="0.94" transform="rotate(416.19 709.78 536.37)"/><ellipse cx="709.78" cy="465.77" rx="53.66" ry="87.54" fill="#eecdc3" opacity="0.94" transform="rotate(470.95 709.78 536.37)"/><ellipse cx="709.78" cy="465.77" rx="53.66" ry="87.54" fill="#eecdc3" opacity="0.97" transform="rotate(537.31 709.78 536.37)"/><ellipse cx="709.78" cy="465.77" rx="53.66" ry="87.54" fill="#eecdc3" opacity="0.82" transform="rotate(593.33 709.78 536.37)"/><ellipse cx="709.78" cy="489.3" rx="35.77" ry="58.36" fill="#dfb1a4" opacity="0.97" transform="rotate(264.97 709.78 536.37)"/><ellipse cx="709.78" cy="489.3" rx="35.77" ry="58.36" fill="#dfb1a4" opacity="0.84" transform="rotate(320.81 709.78 536.37)"/><ellipse cx="709.78" cy="489.3" rx="35.77" ry="58.36" fill="#dfb1a4" opacity="0.94" transform="rotate(383.76 709.78 536.37)"/><ellipse cx="709.78" cy="489.3" rx="35.77" ry="58.36" fill="#dfb1a4" opacity="0.89" transform="rotate(446.64 709.78 536.37)"/><ellipse cx="709.78" cy="489.3" rx="35.77" ry="58.36" fill="#dfb1a4" opacity="0.85" transform="rotate(500.52 709.78 536.37)"/><ellipse cx="709.78" cy="489.3" rx="35.77" ry="58.36" fill="#dfb1a4" opacity="0.91" transform="rotate(562.87 709.78 536.37)"/><ellipse cx="709.78" cy="512.83" rx="17.89" ry="29.18" fill="#cd9f92" opacity="0.84" transform="rotate(234.9 709.78 536.37)"/><ellipse cx="709.78" cy="512.83" rx="17.89" ry="29.18" fill="#cd9f92" opacity="0.96" transform="rotate(289.75 709.78 536.37)"/><ellipse cx="709.78" cy="512.83" rx="17.89" ry="29.18" fill="#cd9f92" opacity="0.86" transform="rotate(353.72 709.78 536.37)"/><ellipse cx="709.78" cy="512.83" rx="17.89" ry="29.18" fill="#cd9f92" opacity="0.92" transform="rotate(414.78 709.78 536.37)"/><ellipse cx="709.78" cy="512.83" rx="17.89" ry="29.18" fill="#cd9f92" opacity="0.95" transform="rotate(470.1 709.78 536.37)"/><ellipse cx="709.78" cy="512.83" rx="17.89" ry="29.18" fill="#cd9f92" opacity="0.91" transform="rotate(535.8 709.78 536.37)"/><circle cx="709.78" cy="536.37" r="24" fill="#f7e3dd"/><circle cx="709.78" cy="536.37" r="14.12" fill="#b49157" opacity="0.75"/><ellipse cx="112.52" cy="476.41" rx="48.16" ry="78.58" fill="#eecdc3" opacity="0.92" transform="rotate(192.79 112.52 539.78)"/><ellipse cx="112.52" cy="476.41" rx="48.16" ry="78.58" fill="#eecdc3" opacity="0.95" transform="rotate(238.09 112.52 539.78)"/><ellipse cx="112.52" cy="476.41" rx="48.16" ry="78.58" fill="#eecdc3" opacity="0.95" transform="rotate(281.79 112.52 539.78)"/><ellipse cx="112.52" cy="476.41" rx="48.16" ry="78.58" fill="#eecdc3" opacity="0.87" transform="rotate(328.14 112.52 539.78)"/><ellipse cx="112.52" cy="476.41" rx="48.16" ry="78.58" fill="#eecdc3" opacity="0.89" transform="rotate(377.95 112.52 539.78)"/><ellipse cx="112.52" cy="476.41" rx="48.16" ry="78.58" fill="#eecdc3" opacity="0.9" transform="rotate(418.96 112.52 539.78)"/><ellipse cx="112.52" cy="476.41" rx="48.16" ry="78.58" fill="#eecdc3" opacity="0.83" transform="rotate(466.4 112.52 539.78)"/><ellipse cx="112.52" cy="476.41" rx="48.16" ry="78.58" fill="#eecdc3" opacity="0.87" transform="rotate(510.31 112.52 539.78)"/><ellipse cx="112.52" cy="497.53" rx="32.11" ry="52.39" fill="#dfb1a4" opacity="0.9" transform="rotate(172.84 112.52 539.78)"/><ellipse cx="112.52" cy="497.53" rx="32.11" ry="52.39" fill="#dfb1a4" opacity="0.95" transform="rotate(216.95 112.52 539.78)"/><ellipse cx="112.52" cy="497.53" rx="32.11" ry="52.39" fill="#dfb1a4" opacity="0.88" transform="rotate(261.95 112.52 539.78)"/><ellipse cx="112.52" cy="497.53" rx="32.11" ry="52.39" fill="#dfb1a4" opacity="0.87" transform="rotate(305.14 112.52 539.78)"/><ellipse cx="112.52" cy="497.53" rx="32.11" ry="52.39" fill="#dfb1a4" opacity="0.83" transform="rotate(348.39 112.52 539.78)"/><ellipse cx="112.52" cy="497.53" rx="32.11" ry="52.39" fill="#dfb1a4" opacity="0.83" transform="rotate(401 112.52 539.78)"/><ellipse cx="112.52" cy="497.53" rx="32.11" ry="52.39" fill="#dfb1a4" opacity="0.98" transform="rotate(444.94 112.52 539.78)"/><ellipse cx="112.52" cy="497.53" rx="32.11" ry="52.39" fill="#dfb1a4" opacity="0.89" transform="rotate(489.38 112.52 539.78)"/><ellipse cx="112.52" cy="518.66" rx="16.05" ry="26.19" fill="#cd9f92" opacity="0.83" transform="rotate(152.21 112.52 539.78)"/><ellipse cx="112.52" cy="518.66" rx="16.05" ry="26.19" fill="#cd9f92" opacity="0.91" transform="rotate(192.24 112.52 539.78)"/><ellipse cx="112.52" cy="518.66" rx="16.05" ry="26.19" fill="#cd9f92" opacity="0.95" transform="rotate(238.94 112.52 539.78)"/><ellipse cx="112.52" cy="518.66" rx="16.05" ry="26.19" fill="#cd9f92" opacity="0.93" transform="rotate(288.06 112.52 539.78)"/><ellipse cx="112.52" cy="518.66" rx="16.05" ry="26.19" fill="#cd9f92" opacity="0.91" transform="rotate(330.96 112.52 539.78)"/><ellipse cx="112.52" cy="518.66" rx="16.05" ry="26.19" fill="#cd9f92" opacity="0.9" transform="rotate(372.58 112.52 539.78)"/><ellipse cx="112.52" cy="518.66" rx="16.05" ry="26.19" fill="#cd9f92" opacity="0.9" transform="rotate(418.47 112.52 539.78)"/><ellipse cx="112.52" cy="518.66" rx="16.05" ry="26.19" fill="#cd9f92" opacity="0.92" transform="rotate(467.16 112.52 539.78)"/><circle cx="112.52" cy="539.78" r="21.55" fill="#f7e3dd"/><circle cx="112.52" cy="539.78" r="12.67" fill="#b49157" opacity="0.75"/>
</svg>