<svg xmlns="http://www.w3.org/2000/svg" viewBox="0 0 800 1000" width="800" height="1000" role="img" aria-hidden="true">
  <defs>
    <linearGradient id="bgg2802" x1="0" y1="0" x2="0.35" y2="1">
      <stop offset="0" stop-color="#fdfbf7"/>
      <stop offset="1" stop-color="#f2ebdf"/>
    </linearGradient>
    <radialGradient id="glowg2802" cx="0.5" cy="0.38" r="0.62">
      <stop offset="0" stop-color="#ffffff" stop-opacity="0.55"/>
      <stop offset="1" stop-color="#ffffff" stop-opacity="0"/>
    </radialGradient>
  </defs>
  <rect width="800" height="1000" fill="url(#bgg2802)"/>
  <rect width="800" height="1000" fill="url(#glowg2802)"/>
  <path d="M 392.28 1020 Q 218.65 717.13 136.94 414.26" fill="none" stroke="#6f7d5c" stroke-width="8.8" stroke-linecap="round" opacity="0.55"/><path d="M 392.28 1020 Q 271.58 813.45 214.78 606.9" fill="none" stroke="#6f7d5c" stroke-width="8.8" stroke-linecap="round" opacity="0.55"/><path d="M 392.28 1020 Q 311.48 738.36 273.47 456.72" fill="none" stroke="#6f7d5c" stroke-width="8.8" stroke-linecap="round" opacity="0.55"/><path d="M 392.28 1020 Q 353.37 779.24 335.06 538.47" fill="none" stroke="#6f7d5c" stroke-width="8.8" stroke-linecap="round" opacity="0.55"/><path d="M 392.28 1020 Q 422.82 783.82 437.19 547.63" fill="none" stroke="#6f7d5c" stroke-width="8.8" stroke-linecap="round" opacity="0.55"/><path d="M 392.28 1020 Q 483.97 694.83 527.12 369.66" fill="none" stroke="#6f7d5c" stroke-width="8.8" stroke-linecap="round" opacity="0.55"/><path d="M 392.28 1020 Q 584.96 781.05 675.63 542.1" fill="none" stroke="#6f7d5c" stroke-width="8.8" stroke-linecap="round" opacity="0.55"/><path d="M 392.28 1020 Q 564.41 742.55 645.41 465.09" fill="none" stroke="#6f7d5c" stroke-width="8.8" stroke-linecap="round" opacity="0.55"/><ellipse cx="483.05" cy="720.76" rx="30.65" ry="83.89" fill="#93a17f" opacity="0.87" transform="rotate(-5.63 483.05 801.43)"/><ellipse cx="522.85" cy="613.04" rx="37.34" ry="102.2" fill="#6f7d5c" opacity="0.76" transform="rotate(1.81 522.85 711.31)"/><ellipse cx="173.38" cy="599.29" rx="33.76" ry="92.4" fill="#6f7d5c" opacity="0.71" transform="rotate(25 173.38 688.14)"/><ellipse cx="195.93" cy="643.93" rx="33.77" ry="92.42" fill="#93a17f" opacity="0.65" transform="rotate(73.89 195.93 732.8)"/><ellipse cx="510.86" cy="440.16" rx="45.77" ry="125.27" fill="#6f7d5c" opacity="0.77" transform="rotate(-26.57 510.86 560.61)"/><ellipse cx="251.84" cy="679.69" rx="40.02" ry="109.54" fill="#6f7d5c" opacity="0.64" transform="rotate(-93.75 251.84 785.02)"/><ellipse cx="294.65" cy="769.01" rx="34.48" ry="94.37" fill="#b6c0a4" opacity="0.64" transform="rotate(-66.96 294.65 859.75)"/><ellipse cx="326.93" cy="704.68" rx="36.79" ry="100.68" fill="#6f7d5c" opacity="0.88" transform="rotate(-40.18 326.93 801.49)"/><ellipse cx="360.81" cy="752.13" rx="30.81" ry="84.31" fill="#6f7d5c" opacity="0.77" transform="rotate(-13.39 360.81 833.2)"/><ellipse cx="416.98" cy="743.69" rx="35.36" ry="96.78" fill="#b6c0a4" opacity="0.71" transform="rotate(13.39 416.98 836.75)"/><ellipse cx="466.44" cy="667.05" rx="38.25" ry="104.69" fill="#b6c0a4" opacity="0.72" transform="rotate(40.18 466.44 767.71)"/><ellipse cx="548.12" cy="753" rx="31.01" ry="84.87" fill="#6f7d5c" opacity="0.86" transform="rotate(66.96 548.12 834.61)"/><ellipse cx="531.5" cy="718.36" rx="32.82" ry="89.83" fill="#b6c0a4" opacity="0.67" transform="rotate(93.75 531.5 804.74)"/><ellipse cx="527.12" cy="298.52" rx="54.07" ry="88.22" fill="#f4ecdd" opacity="0.92" transform="rotate(323.02 527.12 369.66)"/><ellipse cx="527.12" cy="298.52" rx="54.07" ry="88.22" fill="#f4ecdd" opacity="0.84" transform="rotate(395.26 527.12 369.66)"/><ellipse cx="527.12" cy="298.52" rx="54.07" ry="88.22" fill="#f4ecdd" opacity="0.98" transform="rotate(469.31 527.12 369.66)"/><ellipse cx="527.12" cy="298.52" rx="54.07" ry="88.22" fill="#f4ecdd" opacity="0.91" transform="rotate(536.85 527.12 369.66)"/><ellipse cx="527.12" cy="298.52" rx="54.07" ry="88.22" fill="#f4ecdd" opacity="0.85" transform="rotate(613.05 527.12 369.66)"/><ellipse cx="527.12" cy="322.24" rx="36.05" ry="58.81" fill="#e7dbc6" opacity="0.84" transform="rotate(290.61 527.12 369.66)"/><ellipse cx="527.12" cy="322.24" rx="36.05" ry="58.81" fill="#e7dbc6" opacity="0.96" transform="rotate(356.71 527.12 369.66)"/><ellipse cx="527.12" cy="322.24" rx="36.05" ry="58.81" fill="#e7dbc6" opacity="0.97" transform="rotate(429.85 527.12 369.66)"/><ellipse cx="527.12" cy="322.24" rx="36.05" ry="58.81" fill="#e7dbc6" opacity="0.92" transform="rotate(503.28 527.12 369.66)"/><ellipse cx="527.12" cy="322.24" rx="36.05" ry="58.81" fill="#e7dbc6" opacity="0.91" transform="rotate(577.74 527.12 369.66)"/><ellipse cx="527.12" cy="345.95" rx="18.02" ry="29.41" fill="#d9c9b4" opacity="0.82" transform="rotate(253.15 527.12 369.66)"/><ellipse cx="527.12" cy="345.95" rx="18.02" ry="29.41" fill="#d9c9b4" opacity="0.96" transform="rotate(325.17 527.12 369.66)"/><ellipse cx="527.12" cy="345.95" rx="18.02" ry="29.41" fill="#d9c9b4" opacity="0.97" transform="rotate(394.59 527.12 369.66)"/><ellipse cx="527.12" cy="345.95" rx="18.02" ry="29.41" fill="#d9c9b4" opacity="0.85" transform="rotate(469.91 527.12 369.66)"/><ellipse cx="527.12" cy="345.95" rx="18.02" ry="29.41" fill="#d9c9b4" opacity="0.95" transform="rotate(536.6 527.12 369.66)"/><circle cx="527.12" cy="369.66" r="24.19" fill="#fdfaf4"/><circle cx="527.12" cy="369.66" r="14.23" fill="#b49157" opacity="0.75"/><ellipse cx="136.94" cy="341.17" rx="55.55" ry="90.63" fill="#f4ecdd" opacity="0.83" transform="rotate(392.3 136.94 414.26)"/><ellipse cx="136.94" cy="341.17" rx="55.55" ry="90.63" fill="#f4ecdd" opacity="0.82" transform="rotate(435.91 136.94 414.26)"/><ellipse cx="136.94" cy="341.17" rx="55.55" ry="90.63" fill="#f4ecdd" opacity="0.91" transform="rotate(486.14 136.94 414.26)"/><ellipse cx="136.94" cy="341.17" rx="55.55" ry="90.63" fill="#f4ecdd" opacity="0.87" transform="rotate(530.95 136.94 414.26)"/><ellipse cx="136.94" cy="341.17" rx="55.55" ry="90.63" fill="#f4ecdd" opacity="0.85" transform="rotate(578.31 136.94 414.26)"/><ellipse cx="136.94" cy="341.17" rx="55.55" ry="90.63" fill="#f4ecdd" opacity="0.89" transform="rotate(616.68 136.94 414.26)"/><ellipse cx="136.94" cy="341.17" rx="55.55" ry="90.63" fill="#f4ecdd" opacity="0.85" transform="rotate(660.65 136.94 414.26)"/><ellipse cx="136.94" cy="341.17" rx="55.55" ry="90.63" fill="#f4ecdd" opacity="0.88" transform="rotate(711.09 136.94 414.26)"/><ellipse cx="136.94" cy="365.54" rx="37.03" ry="60.42" fill="#e7dbc6" opacity="0.97" transform="rotate(369.52 136.94 414.26)"/><ellipse cx="136.94" cy="365.54" rx="37.03" ry="60.42" fill="#e7dbc6" opacity="0.82" transform="rotate(417.32 136.94 414.26)"/><ellipse cx="136.94" cy="365.54" rx="37.03" ry="60.42" fill="#e7dbc6" opacity="0.9" transform="rotate(458.29 136.94 414.26)"/><ellipse cx="136.94" cy="365.54" rx="37.03" ry="60.42" fill="#e7dbc6" opacity="0.92" transform="rotate(505.53 136.94 414.26)"/><ellipse cx="136.94" cy="365.54" rx="37.03" ry="60.42" fill="#e7dbc6" opacity="0.94" transform="rotate(548.7 136.94 414.26)"/><ellipse cx="136.94" cy="365.54" rx="37.03" ry="60.42" fill="#e7dbc6" opacity="0.83" transform="rotate(597.5 136.94 414.26)"/><ellipse cx="136.94" cy="365.54" rx="37.03" ry="60.42" fill="#e7dbc6" opacity="0.82" transform="rotate(641.61 136.94 414.26)"/><ellipse cx="136.94" cy="365.54" rx="37.03" ry="60.42" fill="#e7dbc6" opacity="0.94" transform="rotate(685.48 136.94 414.26)"/><ellipse cx="136.94" cy="389.9" rx="18.52" ry="30.21" fill="#d9c9b4" opacity="0.84" transform="rotate(346.46 136.94 414.26)"/><ellipse cx="136.94" cy="389.9" rx="18.52" ry="30.21" fill="#d9c9b4" opacity="0.94" transform="rotate(395.7 136.94 414.26)"/><ellipse cx="136.94" cy="389.9" rx="18.52" ry="30.21" fill="#d9c9b4" opacity="0.95" transform="rotate(443.27 136.94 414.26)"/><ellipse cx="136.94" cy="389.9" rx="18.52" ry="30.21" fill="#d9c9b4" opacity="0.89" transform="rotate(488.29 136.94 414.26)"/><ellipse cx="136.94" cy="389.9" rx="18.52" ry="30.21" fill="#d9c9b4" opacity="0.95" transform="rotate(526.6 136.94 414.26)"/><ellipse cx="136.94" cy="389.9" rx="18.52" ry="30.21" fill="#d9c9b4" opacity="0.95" transform="rotate(576.56 136.94 414.26)"/><ellipse cx="136.94" cy="389.9" rx="18.52" ry="30.21" fill="#d9c9b4" opacity="0.88" transform="rotate(620.23 136.94 414.26)"/><ellipse cx="136.94" cy="389.9" rx="18.52" ry="30.21" fill="#d9c9b4" opacity="0.97" transform="rotate(663.66 136.94 414.26)"/><circle cx="136.94" cy="414.26" r="24.85" fill="#fdfaf4"/><circle cx="136.94" cy="414.26" r="14.62" fill="#b49157" opacity="0.75"/><ellipse cx="273.47" cy="387.94" rx="52.27" ry="85.29" fill="#f4ecdd" opacity="0.86" transform="rotate(247.77 273.47 456.72)"/><ellipse cx="273.47" cy="387.94" rx="52.27" ry="85.29" fill="#f4ecdd" opacity="0.85" transform="rotate(301.02 273.47 456.72)"/><ellipse cx="273.47" cy="387.94" rx="52.27" ry="85.29" fill="#f4ecdd" opacity="0.97" transform="rotate(353.12 273.47 456.72)"/><ellipse cx="273.47" cy="387.94" rx="52.27" ry="85.29" fill="#f4ecdd" opacity="0.92" transform="rotate(407.91 273.47 456.72)"/><ellipse cx="273.47" cy="387.94" rx="52.27" ry="85.29" fill="#f4ecdd" opacity="0.94" transform="rotate(453.65 273.47 456.72)"/><ellipse cx="273.47" cy="387.94" rx="52.27" ry="85.29" fill="#f4ecdd" opacity="0.84" transform="rotate(503.87 273.47 456.72)"/><ellipse cx="273.47" cy="387.94" rx="52.27" ry="85.29" fill="#f4ecdd" opacity="0.83" transform="rotate(561.45 273.47 456.72)"/><ellipse cx="273.47" cy="410.86" rx="34.85" ry="56.86" fill="#e7dbc6" opacity="0.97" transform="rotate(227.59 273.47 456.72)"/><ellipse cx="273.47" cy="410.86" rx="34.85" ry="56.86" fill="#e7dbc6" opacity="0.93" transform="rotate(275.9 273.47 456.72)"/><ellipse cx="273.47" cy="410.86" rx="34.85" ry="56.86" fill="#e7dbc6" opacity="0.96" transform="rotate(324.04 273.47 456.72)"/><ellipse cx="273.47" cy="410.86" rx="34.85" ry="56.86" fill="#e7dbc6" opacity="0.91" transform="rotate(378.81 273.47 456.72)"/><ellipse cx="273.47" cy="410.86" rx="34.85" ry="56.86" fill="#e7dbc6" opacity="0.96" transform="rotate(430.85 273.47 456.72)"/><ellipse cx="273.47" cy="410.86" rx="34.85" ry="56.86" fill="#e7dbc6" opacity="0.9" transform="rotate(478.92 273.47 456.72)"/><ellipse cx="273.47" cy="410.86" rx="34.85" ry="56.86" fill="#e7dbc6" opacity="0.9" transform="rotate(531.76 273.47 456.72)"/><ellipse cx="273.47" cy="433.79" rx="17.42" ry="28.43" fill="#d9c9b4" opacity="0.91" transform="rotate(199.41 273.47 456.72)"/><ellipse cx="273.47" cy="433.79" rx="17.42" ry="28.43" fill="#d9c9b4" opacity="0.9" transform="rotate(250.82 273.47 456.72)"/><ellipse cx="273.47" cy="433.79" rx="17.42" ry="28.43" fill="#d9c9b4" opacity="0.9" transform="rotate(301.88 273.47 456.72)"/><ellipse cx="273.47" cy="433.79" rx="17.42" ry="28.43" fill="#d9c9b4" opacity="0.96" transform="rotate(354.02 273.47 456.72)"/><ellipse cx="273.47" cy="433.79" rx="17.42" ry="28.43" fill="#d9c9b4" opacity="0.85" transform="rotate(404.62 273.47 456.72)"/><ellipse cx="273.47" cy="433.79" rx="17.42" ry="28.43" fill="#d9c9b4" opacity="0.92" transform="rotate(452.82 273.47 456.72)"/><ellipse cx="273.47" cy="433.79" rx="17.42" ry="28.43" fill="#d9c9b4" opacity="0.88" transform="rotate(510.5 273.47 456.72)"/><circle cx="273.47" cy="456.72" r="23.39" fill="#fdfaf4"/><circle cx="273.47" cy="456.72" r="13.76" fill="#b49157" opacity="0.75"/><ellipse cx="645.41" cy="398.5" rx="50.61" ry="82.58" fill="#f4ecdd" opacity="0.9" transform="rotate(175.27 645.41 465.09)"/><ellipse cx="645.41" cy="398.5" rx="50.61" ry="82.58" fill="#f4ecdd" opacity="0.83" transform="rotate(240.96 645.41 465.09)"/><ellipse cx="645.41" cy="398.5" rx="50.61" ry="82.58" fill="#f4ecdd" opacity="0.89" transform="rotate(314.73 645.41 465.09)"/><ellipse cx="645.41" cy="398.5" rx="50.61" ry="82.58" fill="#f4ecdd" opacity="0.96" transform="rotate(388.38 645.41 465.09)"/><ellipse cx="645.41" cy="398.5" rx="50.61" ry="82.58" fill="#f4ecdd" opacity="0.95" transform="rotate(463.15 645.41 465.09)"/><ellipse cx="645.41" cy="420.7" rx="33.74" ry="55.05" fill="#e7dbc6" opacity="0.84" transform="rotate(132.85 645.41 465.09)"/><ellipse cx="645.41" cy="420.7" rx="33.74" ry="55.05" fill="#e7dbc6" opacity="0.86" transform="rotate(204.87 645.41 465.09)"/><ellipse cx="645.41" cy="420.7" rx="33.74" ry="55.05" fill="#e7dbc6" opacity="0.87" transform="rotate(283.4 645.41 465.09)"/><ellipse cx="645.41" cy="420.7" rx="33.74" ry="55.05" fill="#e7dbc6" opacity="0.85" transform="rotate(354.94 645.41 465.09)"/><ellipse cx="645.41" cy="420.7" rx="33.74" ry="55.05" fill="#e7dbc6" opacity="0.92" transform="rotate(423.91 645.41 465.09)"/><ellipse cx="645.41" cy="442.9" rx="16.87" ry="27.53" fill="#d9c9b4" opacity="0.83" transform="rotate(96.26 645.41 465.09)"/><ellipse cx="645.41" cy="442.9" rx="16.87" ry="27.53" fill="#d9c9b4" opacity="0.93" transform="rotate(168.62 645.41 465.09)"/><ellipse cx="645.41" cy="442.9" rx="16.87" ry="27.53" fill="#d9c9b4" opacity="0.85" transform="rotate(247.66 645.41 465.09)"/><ellipse cx="645.41" cy="442.9" rx="16.87" ry="27.53" fill="#d9c9b4" opacity="0.98" transform="rotate(313.08 645.41 465.09)"/><ellipse cx="645.41" cy="442.9" rx="16.87" ry="27.53" fill="#d9c9b4" opacity="0.97" transform="rotate(386.02 645.41 465.09)"/><circle cx="645.41" cy="465.09" r="22.64" fill="#fdfaf4"/><circle cx="645.41" cy="465.09" r="13.32" fill="#b49157" opacity="0.75"/><ellipse cx="335.06" cy="488.04" rx="38.33" ry="62.54" fill="#f4ecdd" opacity="0.84" transform="rotate(99.7 335.06 538.47)"/><ellipse cx="335.06" cy="488.04" rx="38.33" ry="62.54" fill="#f4ecdd" opacity="0.84" transform="rotate(147.61 335.06 538.47)"/><ellipse cx="335.06" cy="488.04" rx="38.33" ry="62.54" fill="#f4ecdd" opacity="0.93" transform="rotate(190.99 335.06 538.47)"/><ellipse cx="335.06" cy="488.04" rx="38.33" ry="62.54" fill="#f4ecdd" opacity="0.84" transform="rotate(236.09 335.06 538.47)"/><ellipse cx="335.06" cy="488.04" rx="38.33" ry="62.54" fill="#f4ecdd" opacity="0.92" transform="rotate(282.39 335.06 538.47)"/><ellipse cx="335.06" cy="488.04" rx="38.33" ry="62.54" fill="#f4ecdd" opacity="0.92" transform="rotate(326.46 335.06 538.47)"/><ellipse cx="335.06" cy="488.04" rx="38.33" ry="62.54" fill="#f4ecdd" opacity="0.92" transform="rotate(370.39 335.06 538.47)"/><ellipse cx="335.06" cy="488.04" rx="38.33" ry="62.54" fill="#f4ecdd" opacity="0.87" transform="rotate(414.61 335.06 538.47)"/><ellipse cx="335.06" cy="504.85" rx="25.55" ry="41.69" fill="#e7dbc6" opacity="0.98" transform="rotate(76.6 335.06 538.47)"/><ellipse cx="335.06" cy="504.85" rx="25.55" ry="41.69" fill="#e7dbc6" opacity="0.83" transform="rotate(123.12 335.06 538.47)"/><ellipse cx="335.06" cy="504.85" rx="25.55" ry="41.69" fill="#e7dbc6" opacity="0.84" transform="rotate(166.48 335.06 538.47)"/><ellipse cx="335.06" cy="504.85" rx="25.55" ry="41.69" fill="#e7dbc6" opacity="0.83" transform="rotate(211.76 335.06 538.47)"/><ellipse cx="335.06" cy="504.85" rx="25.55" ry="41.69" fill="#e7dbc6" opacity="0.9" transform="rotate(262.56 335.06 538.47)"/><ellipse cx="335.06" cy="504.85" rx="25.55" ry="41.69" fill="#e7dbc6" opacity="0.84" transform="rotate(305.82 335.06 538.47)"/><ellipse cx="335.06" cy="504.85" rx="25.55" ry="41.69" fill="#e7dbc6" opacity="0.9" transform="rotate(351.11 335.06 538.47)"/><ellipse cx="335.06" cy="504.85" rx="25.55" ry="41.69" fill="#e7dbc6" opacity="0.92" transform="rotate(391.51 335.06 538.47)"/><ellipse cx="335.06" cy="521.66" rx="12.78" ry="20.85" fill="#d9c9b4" opacity="0.87" transform="rotate(55.56 335.06 538.47)"/><ellipse cx="335.06" cy="521.66" rx="12.78" ry="20.85" fill="#d9c9b4" opacity="0.88" transform="rotate(100.18 335.06 538.47)"/><ellipse cx="335.06" cy="521.66" rx="12.78" ry="20.85" fill="#d9c9b4" opacity="0.89" transform="rotate(148.56 335.06 538.47)"/><ellipse cx="335.06" cy="521.66" rx="12.78" ry="20.85" fill="#d9c9b4" opacity="0.83" transform="rotate(193.92 335.06 538.47)"/><ellipse cx="335.06" cy="521.66" rx="12.78" ry="20.85" fill="#d9c9b4" opacity="0.82" transform="rotate(239.05 335.06 538.47)"/><ellipse cx="335.06" cy="521.66" rx="12.78" ry="20.85" fill="#d9c9b4" opacity="0.86" transform="rotate(283.8 335.06 538.47)"/><ellipse cx="335.06" cy="521.66" rx="12.78" ry="20.85" fill="#d9c9b4" opacity="0.83" transform="rotate(327.02 335.06 538.47)"/><ellipse cx="335.06" cy="521.66" rx="12.78" ry="20.85" fill="#d9c9b4" opacity="0.87" transform="rotate(372.65 335.06 538.47)"/><circle cx="335.06" cy="538.47" r="17.15" fill="#fdfaf4"/><circle cx="335.06" cy="538.47" r="10.09" fill="#b49157" opacity="0.75"/><ellipse cx="675.63" cy="477.3" rx="49.25" ry="80.35" fill="#f4ecdd" opacity="0.84" transform="rotate(174.63 675.63 542.1)"/><ellipse cx="675.63" cy="477.3" rx="49.25" ry="80.35" fill="#f4ecdd" opacity="0.89" transform="rotate(227.83 675.63 542.1)"/><ellipse cx="675.63" cy="477.3" rx="49.25" ry="80.35" fill="#f4ecdd" opacity="0.93" transform="rotate(288.93 675.63 542.1)"/><ellipse cx="675.63" cy="477.3" rx="49.25" ry="80.35" fill="#f4ecdd" opacity="0.83" transform="rotate(354.36 675.63 542.1)"/><ellipse cx="675.63" cy="477.3" rx="49.25" ry="80.35" fill="#f4ecdd" opacity="0.82" transform="rotate(407.45 675.63 542.1)"/><ellipse cx="675.63" cy="477.3" rx="49.25" ry="80.35" fill="#f4ecdd" opacity="0.92" transform="rotate(471.42 675.63 542.1)"/><ellipse cx="675.63" cy="498.9" rx="32.83" ry="53.57" fill="#e7dbc6" opacity="0.89" transform="rotate(140.65 675.63 542.1)"/><ellipse cx="675.63" cy="498.9" rx="32.83" ry="53.57" fill="#e7dbc6" opacity="0.88" transform="rotate(202.41 675.63 542.1)"/><ellipse cx="675.63" cy="498.9" rx="32.83" ry="53.57" fill="#e7dbc6" opacity="0.88" transform="rotate(262.12 675.63 542.1)"/><ellipse cx="675.63" cy="498.9" rx="32.83" ry="53.57" fill="#e7dbc6" opacity="0.89" transform="rotate(317.4 675.63 542.1)"/><ellipse cx="675.63" cy="498.9" rx="32.83" ry="53.57" fill="#e7dbc6" opacity="0.86" transform="rotate(379.66 675.63 542.1)"/><ellipse cx="675.63" cy="498.9" rx="32.83" ry="53.57" fill="#e7dbc6" opacity="0.93" transform="rotate(442.08 675.63 542.1)"/><ellipse cx="675.63" cy="520.5" rx="16.42" ry="26.78" fill="#d9c9b4" opacity="0.87" transform="rotate(112.96 675.63 542.1)"/><ellipse cx="675.63" cy="520.5" rx="16.42" ry="26.78" fill="#d9c9b4" opacity="0.94" transform="rotate(173.34 675.63 542.1)"/><ellipse cx="675.63" cy="520.5" rx="16.42" ry="26.78" fill="#d9c9b4" opacity="0.92" transform="rotate(230.64 675.63 542.1)"/><ellipse cx="675.63" cy="520.5" rx="16.42" ry="26.78" fill="#d9c9b4" opacity="0.86" transform="rotate(293.52 675.63 542.1)"/><ellipse cx="675.63" cy="520.5" rx="16.42" ry="26.78" fill="#d9c9b4" opacity="0.84" transform="rotate(353.66 675.63 542.1)"/><ellipse cx="675.63" cy="520.5" rx="16.42" ry="26.78" fill="#d9c9b4" opacity="0.92" transform="rotate(410.13 675.63 542.1)"/><circle cx="675.63" cy="542.1" r="22.03" fill="#fdfaf4"/><circle cx="675.63" cy="542.1" r="12.96" fill="#b49157" opacity="0.75"/><ellipse cx="437.19" cy="486.38" rx="46.55" ry="75.96" fill="#f4ecdd" opacity="0.83" transform="rotate(297.84 437.19 547.63)"/><ellipse cx="437.19" cy="486.38" rx="46.55" ry="75.96" fill="#f4ecdd" opacity="0.91" transform="rotate(357.57 437.19 547.63)"/><ellipse cx="437.19" cy="486.38" rx="46.55" ry="75.96" fill="#f4ecdd" opacity="0.93" transform="rotate(419.96 437.19 547.63)"/><ellipse cx="437.19" cy="486.38" rx="46.55" ry="75.96" fill="#f4ecdd" opacity="0.98" transform="rotate(476.31 437.19 547.63)"/><ellipse cx="437.19" cy="486.38" rx="46.55" ry="75.96" fill="#f4ecdd" opacity="0.96" transform="rotate(536.08 437.19 547.63)"/><ellipse cx="437.19" cy="486.38" rx="46.55" ry="75.96" fill="#f4ecdd" opacity="0.93" transform="rotate(595.24 437.19 547.63)"/><ellipse cx="437.19" cy="506.79" rx="31.04" ry="50.64" fill="#e7dbc6" opacity="0.84" transform="rotate(272 437.19 547.63)"/><ellipse cx="437.19" cy="506.79" rx="31.04" ry="50.64" fill="#e7dbc6" opacity="0.89" transform="rotate(325.27 437.19 547.63)"/><ellipse cx="437.19" cy="506.79" rx="31.04" ry="50.64" fill="#e7dbc6" opacity="0.91" transform="rotate(390.75 437.19 547.63)"/><ellipse cx="437.19" cy="506.79" rx="31.04" ry="50.64" fill="#e7dbc6" opacity="0.87" transform="rotate(451.21 437.19 547.63)"/><ellipse cx="437.19" cy="506.79" rx="31.04" ry="50.64" fill="#e7dbc6" opacity="0.85" transform="rotate(504.73 437.19 547.63)"/><ellipse cx="437.19" cy="506.79" rx="31.04" ry="50.64" fill="#e7dbc6" opacity="0.97" transform="rotate(564.53 437.19 547.63)"/><ellipse cx="437.19" cy="527.21" rx="15.52" ry="25.32" fill="#d9c9b4" opacity="0.84" transform="rotate(236.81 437.19 547.63)"/><ellipse cx="437.19" cy="527.21" rx="15.52" ry="25.32" fill="#d9c9b4" opacity="0.88" transform="rotate(297.57 437.19 547.63)"/><ellipse cx="437.19" cy="527.21" rx="15.52" ry="25.32" fill="#d9c9b4" opacity="0.96" transform="rotate(359.71 437.19 547.63)"/><ellipse cx="437.19" cy="527.21" rx="15.52" ry="25.32" fill="#d9c9b4" opacity="0.95" transform="rotate(418.78 437.19 547.63)"/><ellipse cx="437.19" cy="527.21" rx="15.52" ry="25.32" fill="#d9c9b4" opacity="0.86" transform="rotate(475.56 437.19 547.63)"/><ellipse cx="437.19" cy="527.21" rx="15.52" ry="25.32" fill="#d9c9b4" opacity="0.83" transform="rotate(539.83 437.19 547.63)"/><circle cx="437.19" cy="547.63" r="20.83" fill="#fdfaf4"/><circle cx="437.19" cy="547.63" r="12.25" fill="#b49157" opacity="0.75"/><ellipse cx="214.78" cy="565.64" rx="31.36" ry="51.16" fill="#f4ecdd" opacity="0.89" transform="rotate(274.75 214.78 606.9)"/><ellipse cx="214.78" cy="565.64" rx="31.36" ry="51.16" fill="#f4ecdd" opacity="0.86" transform="rotate(329.11 214.78 606.9)"/><ellipse cx="214.78" cy="565.64" rx="31.36" ry="51.16" fill="#f4ecdd" opacity="0.95" transform="rotate(388.34 214.78 606.9)"/><ellipse cx="214.78" cy="565.64" rx="31.36" ry="51.16" fill="#f4ecdd" opacity="0.95" transform="rotate(450.03 214.78 606.9)"/><ellipse cx="214.78" cy="565.64" rx="31.36" ry="51.16" fill="#f4ecdd" opacity="0.89" transform="rotate(515.17 214.78 606.9)"/><ellipse cx="214.78" cy="565.64" rx="31.36" ry="51.16" fill="#f4ecdd" opacity="0.93" transform="rotate(573.39 214.78 606.9)"/><ellipse cx="214.78" cy="579.4" rx="20.91" ry="34.11" fill="#e7dbc6" opacity="0.95" transform="rotate(242.65 214.78 606.9)"/><ellipse cx="214.78" cy="579.4" rx="20.91" ry="34.11" fill="#e7dbc6" opacity="0.96" transform="rotate(301.28 214.78 606.9)"/><ellipse cx="214.78" cy="579.4" rx="20.91" ry="34.11" fill="#e7dbc6" opacity="0.95" transform="rotate(358.33 214.78 606.9)"/><ellipse cx="214.78" cy="579.4" rx="20.91" ry="34.11" fill="#e7dbc6" opacity="0.96" transform="rotate(421.25 214.78 606.9)"/><ellipse cx="214.78" cy="579.4" rx="20.91" ry="34.11" fill="#e7dbc6" opacity="0.92" transform="rotate(481 214.78 606.9)"/><ellipse cx="214.78" cy="579.4" rx="20.91" ry="34.11" fill="#e7dbc6" opacity="0.82" transform="rotate(539.53 214.78 606.9)"/><ellipse cx="214.78" cy="593.15" rx="10.45" ry="17.05" fill="#d9c9b4" opacity="0.96" transform="rotate(213.95 214.78 606.9)"/><ellipse cx="214.78" cy="593.15" rx="10.45" ry="17.05" fill="#d9c9b4" opacity="0.91" transform="rotate(270.27 214.78 606.9)"/><ellipse cx="214.78" cy="593.15" rx="10.45" ry="17.05" fill="#d9c9b4" opacity="0.98" transform="rotate(334.87 214.78 606.9)"/><ellipse cx="214.78" cy="593.15" rx="10.45" ry="17.05" fill="#d9c9b4" opacity="0.91" transform="rotate(388.71 214.78 606.9)"/><ellipse cx="214.78" cy="593.15" rx="10.45" ry="17.05" fill="#d9c9b4" opacity="0.92" transform="rotate(449.41 214.78 606.9)"/><ellipse cx="214.78" cy="593.15" rx="10.45" ry="17.05" fill="#d9c9b4" opacity="0.85" transform="rotate(510.92 214.78 606.9)"/><circle cx="214.78" cy="606.9" r="14.03" fill="#fdfaf4"/><circle cx="214.78" cy="606.9" r="8.25" fill="#b49157" opacity="0.75"/>
</svg>